<?xml version="1.0" standalone="no"?>
<!DOCTYPE svg PUBLIC "-//W3C//DTD SVG 1.1//EN" "http://www.w3.org/Graphics/SVG/1.1/DTD/svg11.dtd" >
<svg xmlns="http://www.w3.org/2000/svg">
<metadata>Generated by IcoMoon</metadata>
<defs>
<font id="adelya-icon" horiz-adv-x="1024">
<font-face units-per-em="1024" ascent="960" descent="-64" />
<missing-glyph horiz-adv-x="1024" />
<glyph unicode="&#x20;" horiz-adv-x="512" d="" />
<glyph unicode="&#xe000;" glyph-name="eye" d="M512 832q69.667 0 135.5-21.167t115.5-55 93.5-74.833 73.667-82 51.667-74.833 32.167-54.833l10-21.333q-2.333-5-6.333-13.5t-18.833-34.667-31.667-51.667-44.333-60-56.833-64.333-69.5-60.167-82.333-51.5-94.833-34.667-107.333-13.5q-69.667 0-135.5 21.167t-115.5 54.833-93.5 74.333-73.667 81.5-51.667 74.5-32.167 55l-10 21q2.333 5 6.333 13.5t18.833 34.833 31.667 51.833 44.333 60.333 56.833 64.667 69.5 60.333 82.333 51.833 94.833 34.833 107.333 13.5zM512 746.667q-46.667 0-91.667-12.333t-81.167-31.833-70.667-47.167-59.667-54.5-48.833-57.667-37.667-52.833-26.333-44q12.333-21.667 26.333-43.5t37.667-52.333 48.833-57 59.667-53.833 70.667-46.667 81.167-31.5 91.667-12.167 91.667 12.333 81.167 31.667 70.667 46.833 59.667 54.167 48.833 57.333 37.667 52.667 26.333 43.667q-12.333 21.667-26.333 43.667t-37.667 52.667-48.833 57.333-59.667 54.167-70.667 46.833-81.167 31.667-91.667 12.333zM512 618.667q70.667 0 120.667-50t50-120.667-50-120.667-120.667-50-120.667 50-50 120.667 50 120.667 120.667 50zM512 533.333q-35.333 0-60.333-25t-25-60.333 25-60.333 60.333-25 60.333 25 25 60.333-25 60.333-60.333 25z" />
<glyph unicode="&#xe001;" glyph-name="paper-clip" d="M674 960q41.667 0 80-15.667 40-16 70.667-46.667 31-31.333 46.667-70.333 15.333-37.667 15.333-80t-15.333-80q-15.667-39-46.667-70.333l-392.667-392.667q-18-18-42.667-28.333-24-9.333-48-9.333t-48 9.333q-24.667 10.333-42.667 28.333-18.667 18.667-28 42.333-9.333 22.667-9.333 48 0 25.667 9.333 48.333 9.333 23.333 28 42.333l362.333 362q12.667 12.667 30.333 12.667 17.333 0 30-12.667t12.667-30q0-17.667-12.667-30.333l-362.333-362q-12.333-12.333-12.333-30.333 0-17.667 12.333-30 13.333-12.667 30.333-12.667t30.333 12.667l392.667 392.667q37 37 37 90t-37 90q-38 37.333-90.333 37.333-52.667 0-90-37.333l-393.667-391.667q-30.667-30.667-46.667-70.667-15.667-38.333-15.667-80.333 0-41.333 15.667-80.333 16-39.667 46.667-70.333 31.667-31.333 70.667-47t80.333-15.667 80.333 15.667 70.667 47l392 392q12.667 12.667 30.333 12.667 17.333 0 30-12.667t12.667-30q0-17.667-12.667-30.333l-392-392q-43-43-99-65.667-53.333-22-112.333-22-58.667 0-112.333 22-56 22.667-99 65.667-42.667 42.667-65.333 98.667-22 54-22 112.333 0 58.667 22 112.333 22.333 55.333 65.333 99h0.333l393.333 391.667q30.667 30.667 70.333 46.667 39 15.667 80 15.667z" />
<glyph unicode="&#xe005;" glyph-name="link" d="M725.333 951.466q50.333 0 97.167-19t83.833-56 56-83.833 19-97.167q0-50-19.167-97.167t-55.833-83.833l-128-128q-3.667-3.667-11-10.333-35.667-31.667-79.667-48.167t-90.333-16.5q-58.333 0-110.333 25-39 18.333-70.667 50t-50 70.667q25 25 60.333 25 12.333 0 25-3.667 21.667-35 56.667-56.667 41-25 89-25 33.333 0 64.667 12.667t56 37.333l128 128q24.667 24.667 37.333 56t12.667 64.667-12.667 64.667-37.333 56-56 37.333-64.667 12.667-64.667-12.667-56-37.333l-89.667-89.667q-42.667 11.667-88.333 11.667-7.333 0-20.667-0.667 6.667 7.333 10.333 11l128 128q36.667 36.667 83.833 55.833t97.167 19.167zM426.667 652.8q58.333 0 110.333-25 39-18.333 70.667-50t50-70.667q-25-25-60.333-25-12.333 0-25 3.667-21.667 35-56.667 56.667-41 25-89 25-33.333 0-64.667-12.667t-56-37.333l-128-128q-24.667-24.667-37.333-56t-12.667-64.667 12.667-64.667 37.333-56 56-37.333 64.667-12.667 64.667 12.667 56 37.333l89.667 89.667q42.667-11.667 88.333-11.667 7.333 0 20.667 0.667-6.667-7.333-10.333-11l-128-128q-37-37-83.833-56t-97.167-19q-50 0-97.167 19.167t-83.833 55.833q-37 37-56 83.833t-19 97.167 19 97.167 56 83.833l128 128q3.667 3.667 11 10.333 35.667 31.667 79.667 48.167t90.333 16.5z" />
<glyph unicode="&#xe006;" glyph-name="bell" d="M512 917.333q55 0 104-17.833t87-49.167 68.333-74.5 50.5-93.333 31.5-106.5q33.667-169 71.5-267.167t99.167-159.5h-391.333q7.333-21 7.333-42.667 0-53-37.5-90.5t-90.5-37.5-90.5 37.5-37.5 90.5q0 21.667 7.333 42.667h-391.333q61.333 61.333 99.167 159.5t71.5 267.167q11.333 56.333 31.5 106.5t50.5 93.333 68.333 74.5 87 49.167 104 17.833zM512 149.333q-17.667 0-30.167-12.5t-12.5-30.167 12.5-30.167 30.167-12.5 30.167 12.5 12.5 30.167-12.5 30.167-30.167 12.5zM512 832q-38.667 0-72.833-12t-58.5-30.667-45.167-44.833-33.833-50.833-23.5-52.667-15.5-46.167-8.333-35.5q-42.667-215-94-324.667h703.333q-51.333 109.667-94 324.667-3.333 17.333-8.333 35.5t-15.5 46.167-23.5 52.667-33.833 50.833-45.167 44.833-58.5 30.667-72.833 12z" />
<glyph unicode="&#xe008;" glyph-name="unlock" d="M512 917.333q69.667 0 128.5-34.333t93.167-93.167 34.333-128.5v-42.667q0-17.667-12.5-30.167t-30.167-12.5-30.167 12.5-12.5 30.167v42.667q0 70.667-50 120.667t-120.667 50-120.667-50-50-120.667v-170.667h512q53 0 90.5-37.5t37.5-90.5v-256q0-53-37.5-90.5t-90.5-37.5h-682.667q-53 0-90.5 37.5t-37.5 90.5v256q0 53 37.5 90.5t90.5 37.5h85.333v170.667q0 69.667 34.333 128.5t93.167 93.167 128.5 34.333zM853.333 405.333h-682.667q-17.667 0-30.167-12.5t-12.5-30.167v-256q0-17.667 12.5-30.167t30.167-12.5h682.667q17.667 0 30.167 12.5t12.5 30.167v256q0 17.667-12.5 30.167t-30.167 12.5z" />
<glyph unicode="&#xe009;" glyph-name="unlock2" d="M512 917.333q69.667 0 128.5-34.333t93.167-93.167 34.333-128.5v-42.667q0-17.667-12.5-30.167t-30.167-12.5-30.167 12.5-12.5 30.167v42.667q0 70.667-50 120.667t-120.667 50-120.667-50-50-120.667v-170.667h512q53 0 90.5-37.5t37.5-90.5v-256q0-53-37.5-90.5t-90.5-37.5h-682.667q-53 0-90.5 37.5t-37.5 90.5v256q0 53 37.5 90.5t90.5 37.5h85.333v170.667q0 69.667 34.333 128.5t93.167 93.167 128.5 34.333zM853.333 405.333h-682.667q-17.667 0-30.167-12.5t-12.5-30.167v-256q0-17.667 12.5-30.167t30.167-12.5h682.667q17.667 0 30.167 12.5t12.5 30.167v256q0 17.667-12.5 30.167t-30.167 12.5z" />
<glyph unicode="&#xe010;" glyph-name="image" d="M170.667 917.333h682.667q53 0 90.5-37.5t37.5-90.5v-682.667q0-53-37.5-90.5t-90.5-37.5h-682.667q-53 0-90.5 37.5t-37.5 90.5v682.667q0 53 37.5 90.5t90.5 37.5zM896 217l-213.333 213.333-366.333-366.333h537q17.667 0 30.167 12.5t12.5 30.167v110.333zM853.333 832h-682.667q-17.667 0-30.167-12.5t-12.5-30.167v-682.667q0-17.667 12.5-30.167t30.167-12.5h25l487 487 213.333-213.333v451.667q0 17.667-12.5 30.167t-30.167 12.5zM341.333 746.667q53 0 90.5-37.5t37.5-90.5-37.5-90.5-90.5-37.5-90.5 37.5-37.5 90.5 37.5 90.5 90.5 37.5zM341.333 661.333q-17.667 0-30.167-12.5t-12.5-30.167 12.5-30.167 30.167-12.5 30.167 12.5 12.5 30.167-12.5 30.167-30.167 12.5z" />
<glyph unicode="&#xe011;" glyph-name="signal" d="M512 789.333q131 0 255-46t225-135.333q14.333-12.333 14.333-32 0-16.667-10.667-28.333l-2-2q-12.333-12.333-30-12.333-16.667 0-28.333 10.667-89 78.667-198.5 119.333t-224.833 40.667-224.833-40.667-198.5-119.333q-11.667-10.667-28.333-10.667-19.667 0-32 14.333-10.667 11.667-10.667 28.333 0 19.667 14.333 32 101.333 89.333 225.167 135.333t254.833 46zM512.333 277.333q58 0 107.667-29.333 10-6 15.667-15.833t5.667-21.167-6-21.333q-3-5-6.667-8.667-12.333-12.333-30.333-12.333-12 0-21.333 5.667-30.333 17.667-64.667 17.667-34.667 0-65-17.667-10.667-6-21.667-6-24.333 0-37 21-6 10-6 21.333 0 24.333 21 37 50.333 29.667 108.667 29.667zM512 533q80.667 0 157-26.667t140-79q15.667-12.667 15.667-33 0-15.333-9.667-27-2-2.667-2.667-3.333-12.333-12.333-30-12.333-15.667 0-27.333 9.667-52 42.667-114.667 64.667t-128.333 22-128.333-22-114.667-64.667q-11.667-9.667-27-9.667-20.333 0-33 15.667-9.667 11.667-9.667 27 0 20.333 15.667 33 63.333 52.333 140 79t157 26.667z" />
<glyph unicode="&#xe012;" glyph-name="target" d="M512 917.333q95.667 0 182.5-37.167t149.667-100 100-149.667 37.167-182.5-37.167-182.5-100-149.667-149.667-100-182.5-37.167-182.5 37.167-149.667 100-100 149.667-37.167 182.5 37.167 182.5 100 149.667 149.667 100 182.5 37.167zM512 832q-78 0-149.167-30.5t-122.5-81.833-81.833-122.5-30.5-149.167 30.5-149.167 81.833-122.5 122.5-81.833 149.167-30.5 149.167 30.5 122.5 81.833 81.833 122.5 30.5 149.167-30.5 149.167-81.833 122.5-122.5 81.833-149.167 30.5zM512 746.667q60.667 0 116-23.667t95.333-63.667 63.667-95.333 23.667-116-23.667-116-63.667-95.333-95.333-63.667-116-23.667-116 23.667-95.333 63.667-63.667 95.333-23.667 116 23.667 116 63.667 95.333 95.333 63.667 116 23.667zM512 661.333q-43.333 0-82.833-17t-68-45.5-45.5-68-17-82.833 17-82.833 45.5-68 68-45.5 82.833-17 82.833 17 68 45.5 45.5 68 17 82.833-17 82.833-45.5 68-68 45.5-82.833 17zM512 576q53 0 90.5-37.5t37.5-90.5-37.5-90.5-90.5-37.5-90.5 37.5-37.5 90.5 37.5 90.5 90.5 37.5zM512 490.667q-17.667 0-30.167-12.5t-12.5-30.167 12.5-30.167 30.167-12.5 30.167 12.5 12.5 30.167-12.5 30.167-30.167 12.5z" />
<glyph unicode="&#xe013;" glyph-name="clipboard" d="M426.667 917.333h170.667q41.333 0 74.333-23.833t46.333-61.5h50q53 0 90.5-37.5t37.5-90.5v-597.333q0-53-37.5-90.5t-90.5-37.5h-512q-53 0-90.5 37.5t-37.5 90.5v597.333q0 53 37.5 90.5t90.5 37.5h50q13.333 37.667 46.333 61.5t74.333 23.833zM768 746.667h-50q-13.333-37.667-46.333-61.5t-74.333-23.833h-170.667q-41.333 0-74.333 23.833t-46.333 61.5h-50q-17.667 0-30.167-12.5t-12.5-30.167v-597.333q0-17.667 12.5-30.167t30.167-12.5h512q17.667 0 30.167 12.5t12.5 30.167v597.333q0 17.667-12.5 30.167t-30.167 12.5zM597.333 832h-170.667q-17.667 0-30.167-12.5t-12.5-30.167 12.5-30.167 30.167-12.5h170.667q17.667 0 30.167 12.5t12.5 30.167-12.5 30.167-30.167 12.5z" />
<glyph unicode="&#xe014;" glyph-name="clock" d="M512 917.333q95.667 0 182.5-37.167t149.667-100 100-149.667 37.167-182.5-37.167-182.5-100-149.667-149.667-100-182.5-37.167-182.5 37.167-149.667 100-100 149.667-37.167 182.5 37.167 182.5 100 149.667 149.667 100 182.5 37.167zM512 832q-78 0-149.167-30.5t-122.5-81.833-81.833-122.5-30.5-149.167 30.5-149.167 81.833-122.5 122.5-81.833 149.167-30.5 149.167 30.5 122.5 81.833 81.833 122.5 30.5 149.167-30.5 149.167-81.833 122.5-122.5 81.833-149.167 30.5zM512 746.667q17.667 0 30.167-12.5t12.5-30.167v-238.333l115.667-115.333q12.333-12.333 12.333-30.333t-12.333-30.333-30.333-12.333-30.333 12.333l-128 128q-12.333 12.333-12.333 30.333v256q0 17.667 12.5 30.167t30.167 12.5z" />
<glyph unicode="&#xe017;" glyph-name="camera" d="M341.333 874.667h341.333l85.333-128h128q53 0 90.5-38.167t37.5-91.167v-468.667q0-53-37.5-90.167t-90.5-37.167h-768q-53 0-90.5 37.5t-37.5 90.5v468.667q0 53 37.5 90.833t90.5 37.833h128zM512 618.667q43.333 0 82.833-17t68-45.5 45.5-68 17-82.833-17-82.833-45.5-68-68-45.5-82.833-17-82.833 17-68 45.5-45.5 68-17 82.833 17 82.833 45.5 68 68 45.5 82.833 17zM512 533.333q-53 0-90.5-37.5t-37.5-90.5 37.5-90.5 90.5-37.5 90.5 37.5 37.5 90.5-37.5 90.5-90.5 37.5zM722.333 661.333l-83.667 128h-251.667l-85.333-128h-173.667q-17.667 0-30.167-12.667t-12.5-30.667v-468.667q0-17.667 12.5-30.167t30.167-12.5h768q18 0 30.333 12.167t12.333 29.833v468.667q0 18-12.667 31t-30 13h-173.667z" />
<glyph unicode="&#xe018;" glyph-name="video" d="M128 746.667h469.333q53 0 90.5-37.5t37.5-90.5v-77.667l298.667 163v-512l-298.667 163v-77.667q0-53-37.5-90.5t-90.5-37.5h-469.333q-53 0-90.5 37.5t-37.5 90.5v341.333q0 53 37.5 90.5t90.5 37.5zM597.333 661.333h-469.333q-17.667 0-30.167-12.5t-12.5-30.167v-341.333q0-17.667 12.5-30.167t30.167-12.5h469.333q17.667 0 30.167 12.5t12.5 30.167v341.333q0 17.667-12.5 30.167t-30.167 12.5zM938.667 335.667v224.667l-205.667-112.333z" />
<glyph unicode="&#xe021;" glyph-name="monitor" d="M170.667 874.667h682.667q53 0 90.5-37.5t37.5-90.5v-426.667q0-53-37.5-90.5t-90.5-37.5h-298.667v-85.333h128q17.667 0 30.167-12.5t12.5-30.167-12.5-30.167-30.167-12.5h-341.333q-17.667 0-30.167 12.5t-12.5 30.167 12.5 30.167 30.167 12.5h128v85.333h-298.667q-53 0-90.5 37.5t-37.5 90.5v426.667q0 53 37.5 90.5t90.5 37.5zM853.333 789.333h-682.667q-17.667 0-30.167-12.5t-12.5-30.167v-426.667q0-17.667 12.5-30.167t30.167-12.5h682.667q17.667 0 30.167 12.5t12.5 30.167v426.667q0 17.667-12.5 30.167t-30.167 12.5z" />
<glyph unicode="&#xe022;" glyph-name="server" d="M512 917.333q87.333 0 169-10.5t149.833-30.667 109.333-53.667 41.167-75.833v-597.333q0-42.333-41.167-75.833t-109.333-53.667-149.833-30.667-169-10.5-169 10.5-149.833 30.667-109.333 53.667-41.167 75.833v597.333q0 42.333 41.167 75.833t109.333 53.667 149.833 30.667 169 10.5zM896 150v194.333q-65.333-33-168.333-50t-215.667-17-215.667 17-168.333 50v-195q2-7.333 17.833-17.667t48.5-22.333 76-22 107-16.667 134.667-6.667 134.667 6.667 107 16.833 76 22.167 48.5 22.333 17.833 18zM896 448.667v194.333q-65.333-33-168.333-50t-215.667-17-215.667 17-168.333 50v-195q2-7.333 17.833-17.667t48.5-22.333 76-22 107-16.667 134.667-6.667 134.667 6.667 106.833 16.667 75.833 22 48.667 22.5 18 18.167zM512 832q-70.333 0-133.667-6.667t-106.333-16.5-75.833-21.667-49.167-22.333-19-18.167q2.667-7.667 19-18.167t49.167-22.333 75.833-21.667 106.333-16.5 133.667-6.667 133.667 6.667 106.333 16.5 75.833 21.667 49.167 22.333 19 18.167q-2.667 7.667-19 18.167t-49.167 22.333-75.833 21.667-106.333 16.5-133.667 6.667z" />
<glyph unicode="&#xe023;" glyph-name="cog" d="M512 960q53 0 90.5-37.5t37.5-90.5v-22q15.667-5.333 37.667-15.333l15.333 15.333q37.667 37.667 90.667 37.667 52.667 0 90.333-37.667t37.667-90.333q0-53-37.667-90.667l-15.333-15.333q10-22 15.333-37.667h22q53 0 90.5-37.5t37.5-90.5-37.5-90.5-90.5-37.5h-22q-5.333-15.667-15.333-37.667l15.333-15.333q37.667-37.667 37.667-90.667 0-52.667-37.667-90.333t-90.333-37.667q-53 0-90.667 37.667l-15.333 15.333q-22-10-37.667-15.333v-22q0-53-37.5-90.5t-90.5-37.5-90.5 37.5-37.5 90.5v22q-15.667 5.333-37.667 15.333l-15.333-15.333q-37.667-37.667-90.333-37.667-53 0-90.5 37.667t-37.5 90.333q0 53.333 37.333 90.667l15.333 15.333q-10 22-15.333 37.667h-22q-53 0-90.5 37.5t-37.5 90.5 37.5 90.5 90.5 37.5h22q5.333 15.667 15.333 37.667l-15.333 15.333q-37.333 37.333-37.333 90.667 0 52.667 37.5 90.333t90.5 37.667q52.667 0 90.333-37.667l15.333-15.333q22 10 37.667 15.333v22q0 53 37.5 90.5t90.5 37.5zM512 874.667q-17.667 0-30.167-12.5t-12.5-30.167v-88.333q-74.667-10.667-136.333-56.333l-62.333 62.333q-12.667 12.667-30 12.667-17.667 0-30.167-12.5t-12.5-30.167q0-18 12.333-30.333l62.333-62.333q-45.667-61.667-56.333-136.333h-88.333q-17.667 0-30.167-12.5t-12.5-30.167 12.5-30.167 30.167-12.5h88.333q10.667-74.667 56.333-136.333l-62.333-62.333q-12.333-12.333-12.333-30.333 0-17.667 12.5-30.167t30.167-12.5q17.333 0 30 12.667l62.333 62.333q61.667-45.667 136.333-56.333v-88.333q0-17.667 12.5-30.167t30.167-12.5 30.167 12.5 12.5 30.167v88.333q74.667 10.667 136.333 56.333l62.333-62.333q12.667-12.667 30.333-12.667t30.167 12.5 12.5 30.167-12.667 30.333l-62.333 62.333q45.667 61.667 56.333 136.333h88.333q17.667 0 30.167 12.5t12.5 30.167-12.5 30.167-30.167 12.5h-88.333q-10.667 74.667-56.333 136.333l62.333 62.333q12.667 12.667 12.667 30.333t-12.5 30.167-30.167 12.5-30.333-12.667l-62.333-62.333q-61.667 45.667-136.333 56.333v88.333q0 17.667-12.5 30.167t-30.167 12.5zM512 618.667q70.667 0 120.667-50t50-120.667-50-120.667-120.667-50-120.667 50-50 120.667 50 120.667 120.667 50zM512 533.333q-35.333 0-60.333-25t-25-60.333 25-60.333 60.333-25 60.333 25 25 60.333-25 60.333-60.333 25z" />
<glyph unicode="&#xe024;" glyph-name="heart" d="M753.333 874.667q69.667 0 128.5-34.333t93.167-93.167 34.333-128.5q0-50-19.167-97.167t-55.833-83.833l-422.333-422.333-422.333 422.333q-36.667 36.667-55.833 83.833t-19.167 97.167q0 69.667 34.333 128.5t93.167 93.167 128.5 34.333q50.333 0 97.167-19t83.833-56l60.333-60.333 60.333 60.333q36.667 36.667 83.833 55.833t97.167 19.167zM753.333 789.333q-33.333 0-64.667-12.667t-56-37.333l-120.667-120.667-120.667 120.667q-24.667 24.667-56 37.333t-64.667 12.667q-46.667 0-85.833-22.833t-62-62-22.833-85.833q0-33.333 12.667-64.667t37.333-56l362-362 362 362q24.667 24.667 37.333 56t12.667 64.667q0 46.667-22.833 85.833t-62 62-85.833 22.833z" />
<glyph unicode="&#xe034;" glyph-name="paper" d="M213.333 960h597.333q53 0 90.5-37.5t37.5-90.5v-768q0-53-37.5-90.5t-90.5-37.5h-597.333q-53 0-90.5 37.5t-37.5 90.5v768q0 53 37.5 90.5t90.5 37.5zM341.333 234.667h341.333q17.667 0 30.167-12.5t12.5-30.167-12.5-30.167-30.167-12.5h-341.333q-17.667 0-30.167 12.5t-12.5 30.167 12.5 30.167 30.167 12.5zM341.333 405.333h341.333q17.667 0 30.167-12.5t12.5-30.167-12.5-30.167-30.167-12.5h-341.333q-17.667 0-30.167 12.5t-12.5 30.167 12.5 30.167 30.167 12.5zM810.667 874.667h-597.333q-17.667 0-30.167-12.5t-12.5-30.167v-768q0-17.667 12.5-30.167t30.167-12.5h597.333q17.667 0 30.167 12.5t12.5 30.167v768q0 17.667-12.5 30.167t-30.167 12.5zM341.333 576h341.333q17.667 0 30.167-12.5t12.5-30.167-12.5-30.167-30.167-12.5h-341.333q-17.667 0-30.167 12.5t-12.5 30.167 12.5 30.167 30.167 12.5zM341.333 746.667h170.667q17.667 0 30.167-12.5t12.5-30.167-12.5-30.167-30.167-12.5h-170.667q-17.667 0-30.167 12.5t-12.5 30.167 12.5 30.167 30.167 12.5z" />
<glyph unicode="&#xe036;" glyph-name="search" d="M426.667 917.333q78 0 149.167-30.5t122.5-81.833 81.833-122.5 30.5-149.167q0-67-21.833-128.333t-62.167-111.333l242.333-242q12.333-12.333 12.333-30.333 0-18.333-12.167-30.5t-30.5-12.167q-18 0-30.333 12.333l-242 242.333q-50-40.333-111.333-62.167t-128.333-21.833q-78 0-149.167 30.5t-122.5 81.833-81.833 122.5-30.5 149.167 30.5 149.167 81.833 122.5 122.5 81.833 149.167 30.5zM426.667 832q-60.667 0-116-23.667t-95.333-63.667-63.667-95.333-23.667-116 23.667-116 63.667-95.333 95.333-63.667 116-23.667 116 23.667 95.333 63.667 63.667 95.333 23.667 116-23.667 116-63.667 95.333-95.333 63.667-116 23.667z" />
<glyph unicode="&#xe059;" glyph-name="folder" d="M170.667 874.667h213.333l85.333-128h384q53 0 90.5-37.5t37.5-90.5v-469.333q0-53-37.5-90.5t-90.5-37.5h-682.667q-53 0-90.5 37.5t-37.5 90.5v597.333q0 53 37.5 90.5t90.5 37.5zM423.667 661.333l-82.333 128h-170.667q-17.667 0-30.167-12.5t-12.5-30.167v-597.333q0-17.667 12.5-30.167t30.167-12.5h682.667q17.667 0 30.167 12.5t12.5 30.167v469.333q0 17.667-12.5 30.167t-30.167 12.5h-429.667z" />
<glyph unicode="&#xe065;" glyph-name="cloud" d="M640 832q78 0 149.167-30.5t122.5-81.833 81.833-122.5 30.5-149.167-30.5-149.167-81.833-122.5-122.5-81.833-149.167-30.5h-384q-69.667 0-128.5 34.333t-93.167 93.167-34.333 128.5 34.333 128.5 93.167 93.167 128.5 34.333h22q26.333 74.333 79.333 132.167t126.833 90.833 155.833 33zM640 746.667q-55.333 0-106.5-19.833t-90-53.833-65-81.333-33.833-101h-88.667q-70.667 0-120.667-50t-50-120.667 50-120.667 120.667-50h384q60.667 0 116 23.667t95.333 63.667 63.667 95.333 23.667 116-23.667 116-63.667 95.333-95.333 63.667-116 23.667z" />
<glyph unicode="&#xe066;" glyph-name="cloud-upload" d="M640 874.667q78 0 149.167-30.5t122.5-81.833 81.833-122.5 30.5-149.167q0-72.667-26.5-139.667t-72-117.333-108.667-83.5-134.167-41.167v86q71.667 10.333 130.167 51.833t92.167 105.667 33.667 138.167q0 60.667-23.667 116t-63.667 95.333-95.333 63.667-116 23.667q-55.333 0-106.5-19.833t-90-53.833-65-81.333-33.833-101h-88.667q-70.667 0-120.667-50t-50-120.667q0-38.667 15.167-71.667t39.833-54.167 54.833-33 60.833-11.833h170.667v-85.333h-170.667q-69.667 0-128.5 34.333t-93.167 93.167-34.333 128.5 34.333 128.5 93.167 93.167 128.5 34.333h22q26.333 74.333 79.333 132.167t126.833 90.833 155.833 33zM554.667 533.333q17.667 0 30.333-12.667l128-128q12.333-12.333 12.333-30 0-18.333-12.167-30.5t-30.5-12.167q-18 0-30.333 12.333l-55 55.333v-281q0-17.667-12.5-30.167t-30.167-12.5-30.167 12.5-12.5 30.167v281l-55-55.333q-12.333-12.333-30.333-12.333-17.667 0-30.167 12.5t-12.5 30.167q0 17 12.333 30l128 128q12.667 12.667 30.333 12.667z" />
<glyph unicode="&#xe067;" glyph-name="cloud-download" d="M640 874.667q78 0 149.167-30.5t122.5-81.833 81.833-122.5 30.5-149.167q0-85-35-160.667t-96.667-129.167-140-77.5l21 20.667q18 18.333 28 42.667 9.333 22.667 9.333 49.333 0 6.667-0.333 9.333 59.333 41.333 93.833 105.833t34.5 139.5q0 60.667-23.667 116t-63.667 95.333-95.333 63.667-116 23.667q-55.333 0-106.5-19.833t-90-53.833-65-81.333-33.833-101h-88.667q-70.667 0-120.667-50t-50-120.667q0-38.667 15.167-71.667t39.833-54.167 54.833-33 60.833-11.833h50q11.667-29.333 30-48l37.667-37.333h-117.667q-69.667 0-128.5 34.333t-93.167 93.167-34.333 128.5 34.333 128.5 93.167 93.167 128.5 34.333h22q26.333 74.333 79.333 132.167t126.833 90.833 155.833 33zM554.667 533.333q17.667 0 30.167-12.5t12.5-30.167v-281l55 55.333q12.333 12.333 30.333 12.333 18.333 0 30.5-12.167t12.167-30.5q0-18-12.333-30.333l-128-128q-12.333-12.333-30.333-12.333t-30.333 12.333l-128 128q-12.333 13-12.333 30.333 0 17.667 12.5 30.167t30.167 12.5q18 0 30.333-12.333l55-55.333v281q0 17.667 12.5 30.167t30.167 12.5z" />
<glyph unicode="&#xe071;" glyph-name="location-2" d="M512 917.333q95.667 0 182.5-37.167t149.667-100 100-149.667 37.167-182.5-37.167-182.5-100-149.667-149.667-100-182.5-37.167-182.5 37.167-149.667 100-100 149.667-37.167 182.5 37.167 182.5 100 149.667 149.667 100 182.5 37.167zM554.667 829.667v-125.667q0-17.667-12.5-30.167t-30.167-12.5-30.167 12.5-12.5 30.167v125.667q-66-7.333-125.167-36.333t-103.833-73.667-73.667-103.833-36.333-125.167h125.667q17.667 0 30.167-12.5t12.5-30.167-12.5-30.167-30.167-12.5h-125.667q7.333-66 36.333-125.167t73.667-103.833 103.833-73.667 125.167-36.333v125.667q0 17.667 12.5 30.167t30.167 12.5 30.167-12.5 12.5-30.167v-125.667q66 7.333 125.167 36.333t103.833 73.667 73.667 103.833 36.333 125.167h-125.667q-17.667 0-30.167 12.5t-12.5 30.167 12.5 30.167 30.167 12.5h125.667q-7.333 66-36.333 125.167t-73.667 103.833-103.833 73.667-125.167 36.333z" />
<glyph unicode="&#xe074;" glyph-name="head" d="M512 960q69.667 0 128.5-34.333t93.167-93.167 34.333-128.5v-128q0-53.333-20.667-101t-57.667-83q97.333-15.333 173-45.167t118.5-70.5 42.833-85.667v-84q0-53-37.5-90.5t-90.5-37.5h-768q-53 0-90.5 37.5t-37.5 90.5v84.333q0 45 42.833 85.667t118.333 70.5 172.833 44.833q-36.667 35.667-57.333 83.167t-20.667 100.833v128q0 69.667 34.333 128.5t93.167 93.167 128.5 34.333zM512 320q-92.667 0-178.833-14.833t-150.167-41.5q-25.667-10.667-45.833-22.667t-30.667-21.667-15.833-16.833-5.333-11.5v-84.333q0-17.667 12.5-30.167t30.167-12.5h768q17.667 0 30.167 12.5t12.5 30.167v84q0 4.333-5.333 11.5t-15.833 16.833-30.667 21.667-45.833 23q-64 26.667-150.167 41.5t-178.833 14.833zM512 874.667q-70.667 0-120.667-50t-50-120.667v-128q0-70.667 50-120.667t120.667-50 120.667 50 50 120.667v128q0 70.667-50 120.667t-120.667 50z" />
<glyph unicode="&#xe075;" glyph-name="briefcase" d="M426.667 874.667h170.667q53 0 90.5-37.5t37.5-90.5v-42.667h128q53 0 90.5-37.5t37.5-90.5v-426.667q0-53-37.5-90.5t-90.5-37.5h-682.667q-53 0-90.5 37.5t-37.5 90.5v426.667q0 53 37.5 90.5t90.5 37.5h128v42.667q0 53 37.5 90.5t90.5 37.5zM213.333 106.667v512h-42.667q-17.667 0-30.167-12.5t-12.5-30.167v-426.667q0-17.667 12.5-30.167t30.167-12.5h42.667zM725.333 106.667v512h-426.667v-512h426.667zM853.333 618.667h-42.667v-512h42.667q17.667 0 30.167 12.5t12.5 30.167v426.667q0 17.667-12.5 30.167t-30.167 12.5zM597.333 789.333h-170.667q-17.667 0-30.167-12.5t-12.5-30.167v-42.667h256v42.667q0 17.667-12.5 30.167t-30.167 12.5z" />
<glyph unicode="&#xe076;" glyph-name="speech-bubble" d="M170.667 917.333h682.667q53 0 90.5-37.5t37.5-90.5v-469.333q0-53-37.5-90.5t-90.5-37.5h-341.333l-298.667-213.333v213.333h-42.667q-53 0-90.5 37.5t-37.5 90.5v469.333q0 53 37.5 90.5t90.5 37.5zM853.333 832h-682.667q-17.667 0-30.167-12.5t-12.5-30.167v-469.333q0-17.667 12.5-30.167t30.167-12.5h128v-133l186 133h368.667q17.667 0 30.167 12.5t12.5 30.167v469.333q0 17.667-12.5 30.167t-30.167 12.5z" />
<glyph unicode="&#xe078;" glyph-name="globe" d="M512 917.333q12 0 18-0.333 62-2.333 120.5-20.5t108.167-48.833 91.167-73.833 70.333-93.833 45-110.167 16.167-121.833-16.167-121.833-45-110.167-70.333-93.833-91.167-73.833-108.167-48.833-120.5-20.5q-6-0.333-18-0.333t-18 0.333q-62 2.333-120.5 20.5t-108.167 48.833-91.167 73.833-70.333 93.833-45 110.167-16.167 121.833 16.167 121.833 45 110.167 70.333 93.833 91.167 73.833 108.167 48.833 120.5 20.5q6 0.333 18 0.333zM300.333 405.333h-170q13.333-119 91.667-209t192.667-120q-43.333 65.667-75.5 148.833t-38.833 180.167zM638.333 405.333h-252.667q3.333-42.667 13.833-85.333t23.5-75.5 30-64.833 30.667-52.667 28.333-39.667q14.667 19 28.333 39.833t30.667 52.833 30 64.833 23.5 75.333 13.833 85.167zM414.667 819.667q-114.333-30-192.667-120t-91.667-209h170q11.667 174 114.333 329zM893.667 405.333h-169.667q-12.333-174.333-114.667-329 114.333 30 192.667 120t91.667 209zM512 808.667q-14.667-19-28.167-39.833t-30.667-52.833-30.167-64.833-23.5-75.333-13.833-85.167h252.667q-3.333 42.667-13.833 85.333t-23.5 75.5-30 64.833-30.667 52.667-28.333 39.667zM609.333 819.667q102.333-154.667 114.667-329h169.667q-13.333 119-91.667 209t-192.667 120z" />
<glyph unicode="&#xe079;" glyph-name="box" d="M42.667 746.667l469.333 213.333 469.333-213.333v-597.333l-469.333-213.333-469.333 213.333v597.333zM469.333 506l-341.333 155v-456.667l341.333-155.333v457zM896 204.333v456.667l-341.333-155v-457zM826.667 723.333l-314.667 143-314.667-143 314.667-143z" />
<glyph unicode="&#xe07a;" glyph-name="globe2" d="M512 917.333q12 0 18-0.333 62-2.333 120.5-20.5t108.167-48.833 91.167-73.833 70.333-93.833 45-110.167 16.167-121.833-16.167-121.833-45-110.167-70.333-93.833-91.167-73.833-108.167-48.833-120.5-20.5q-6-0.333-18-0.333t-18 0.333q-62 2.333-120.5 20.5t-108.167 48.833-91.167 73.833-70.333 93.833-45 110.167-16.167 121.833 16.167 121.833 45 110.167 70.333 93.833 91.167 73.833 108.167 48.833 120.5 20.5q6 0.333 18 0.333zM300.333 405.333h-170q13.333-119 91.667-209t192.667-120q-43.333 65.667-75.5 148.833t-38.833 180.167zM638.333 405.333h-252.667q3.333-42.667 13.833-85.333t23.5-75.5 30-64.833 30.667-52.667 28.333-39.667q14.667 19 28.333 39.833t30.667 52.833 30 64.833 23.5 75.333 13.833 85.167zM414.667 819.667q-114.333-30-192.667-120t-91.667-209h170q11.667 174 114.333 329zM893.667 405.333h-169.667q-12.333-174.333-114.667-329 114.333 30 192.667 120t91.667 209zM512 808.667q-14.667-19-28.167-39.833t-30.667-52.833-30.167-64.833-23.5-75.333-13.833-85.167h252.667q-3.333 42.667-13.833 85.333t-23.5 75.5-30 64.833-30.667 52.667-28.333 39.667zM609.333 819.667q102.333-154.667 114.667-329h169.667q-13.333 119-91.667 209t-192.667 120z" />
<glyph unicode="&#xe080;" glyph-name="reload" d="M469.333 874.667q83 0 160.667-31.333 79.667-32.333 141-93.667 0.333-0.333 125-122.333v162q0 17.667 12.5 30.167t30.167 12.5 30.167-12.5 12.5-30.167v-256q0-17.667-12.5-30.167t-30.167-12.5h-256q-17.667 0-30.167 12.5t-12.5 30.167 12.5 30.167 30.167 12.5h144q-92.667 90-116 113.333-49.667 49.667-113 75-61 25-128.333 25t-128.333-25q-63.667-25.333-113-75-49.333-49.333-75-113-25-61-25-128.333t25-128.333q25.667-63.667 75-113 49.333-49.667 113-75 61-25 128.333-25t128.333 25q63.333 25.333 113 75 55.333 55.333 80.667 127.667 5.667 16.667 21.667 24.167t32.667 1.833q16.667-6 24.333-22t1.667-32.667q-15.333-43.667-41.5-85.333t-59.167-74q-61.333-61.333-141-93.667-77.667-31.333-160.667-31.333t-160.667 31.333q-79.667 32.333-141 93.667t-93.667 141q-31.333 77.667-31.333 160.667t31.333 160.667q32.333 79.667 93.667 141t141 93.667q77.667 31.333 160.667 31.333z" />
<glyph unicode="&#xe081;" glyph-name="share" d="M768 874.667q70.667 0 120.667-50t50-120.667-50-120.667-120.667-50q-37.667 0-71.167 15.5t-57.5 43.167l-216.333-108.333q3.667-17.667 3.667-35.667t-3.667-35.667l216.333-108.333q24 27.667 57.5 43.167t71.167 15.5q70.667 0 120.667-50t50-120.667-50-120.667-120.667-50-120.667 50-50 120.667q0 18 3.667 35.667l-216.333 108.333q-24-27.667-57.5-43.167t-71.167-15.5q-70.667 0-120.667 50t-50 120.667 50 120.667 120.667 50q37.667 0 71.167-15.5t57.5-43.167l216.333 108.333q-3.667 17.667-3.667 35.667 0 70.667 50 120.667t120.667 50zM256 533.333q-35.333 0-60.333-25t-25-60.333 25-60.333 60.333-25 60.333 25 25 60.333-25 60.333-60.333 25zM768 277.333q-35.333 0-60.333-25t-25-60.333 25-60.333 60.333-25 60.333 25 25 60.333-25 60.333-60.333 25zM768 789.333q-35.333 0-60.333-25t-25-60.333 25-60.333 60.333-25 60.333 25 25 60.333-25 60.333-60.333 25z" />
<glyph unicode="&#xe085;" glyph-name="tag" d="M42.667 917.333h482.667l418.667-418.333q37.333-37.333 37.333-90.333 0-53.333-37.333-90.667l-302-302q-37.333-37.333-90.333-37.333-53.333 0-90.667 37.333l-418.333 418.667v482.667zM883.667 438.667l-393.667 393.333h-362v-362l393.333-393.667q12.667-12.333 30.333-12.333t30 12.333l302 302q12.333 12.333 12.333 30t-12.333 30.333zM362.667 704q44.333 0 75.5-31.167t31.167-75.5-31.167-75.5-75.5-31.167-75.5 31.167-31.167 75.5 31.167 75.5 75.5 31.167zM362.667 618.667q-8.667 0-15-6.333t-6.333-15 6.333-15 15-6.333 15 6.333 6.333 15-6.333 15-15 6.333z" />
<glyph unicode="&#xe091;" glyph-name="bar-graph-2" d="M512 917.333q53 0 90.5-37.5t37.5-90.5v-682.667q0-53-37.5-90.5t-90.5-37.5-90.5 37.5-37.5 90.5v682.667q0 53 37.5 90.5t90.5 37.5zM170.667 405.333q53 0 90.5-37.5t37.5-90.5v-170.667q0-53-37.5-90.5t-90.5-37.5-90.5 37.5-37.5 90.5v170.667q0 53 37.5 90.5t90.5 37.5zM170.667 320q-17.667 0-30.167-12.5t-12.5-30.167v-170.667q0-17.667 12.5-30.167t30.167-12.5 30.167 12.5 12.5 30.167v170.667q0 17.667-12.5 30.167t-30.167 12.5zM512 832q-17.667 0-30.167-12.5t-12.5-30.167v-682.667q0-17.667 12.5-30.167t30.167-12.5 30.167 12.5 12.5 30.167v682.667q0 17.667-12.5 30.167t-30.167 12.5zM853.333 661.333q53 0 90.5-37.5t37.5-90.5v-426.667q0-53-37.5-90.5t-90.5-37.5-90.5 37.5-37.5 90.5v426.667q0 53 37.5 90.5t90.5 37.5zM853.333 576q-17.667 0-30.167-12.5t-12.5-30.167v-426.667q0-17.667 12.5-30.167t30.167-12.5 30.167 12.5 12.5 30.167v426.667q0 17.667-12.5 30.167t-30.167 12.5z" />
<glyph unicode="&#xe092;" glyph-name="pie-graph" d="M512 917.333q95.667 0 182.5-37.167t149.667-100 100-149.667 37.167-182.5-37.167-182.5-100-149.667-149.667-100-182.5-37.167-182.5 37.167-149.667 100-100 149.667-37.167 182.5 37.167 182.5 100 149.667 149.667 100 182.5 37.167zM469.333 405.333v424.333q-71-8-134.167-41.167t-108.667-83.5-72-117.333-26.5-139.667q0-78 30.5-149.167t81.833-122.5 122.5-81.833 149.167-30.5q72.667 0 139.667 26.5t117.333 72 83.5 108.667 41.167 134.167h-424.333zM554.667 829.667v-339h339q-7.333 66-36.333 125.167t-73.667 103.833-103.833 73.667-125.167 36.333z" />
<glyph unicode="&#xe094;" glyph-name="arrow-left" d="M426.667 789.333q17.667 0 30.167-12.5t12.5-30.167q0-18-12.667-30.333l-225.667-225.667h665q17.667 0 30.167-12.5t12.5-30.167-12.5-30.167-30.167-12.5h-665l225.667-225.667q12.667-12.333 12.667-30.333 0-17.667-12.5-30.167t-30.167-12.5q-18 0-30.333 12.333l-298.667 298.667q-12.333 13-12.333 30.333t12.333 30.333l298.667 298.667q12.667 12.333 30.333 12.333z" />
<glyph unicode="&#xe095;" glyph-name="arrow-right" d="M597.333 789.333q18 0 30.333-12.333l298.667-298.667q12.333-12.333 12.333-30.333t-12.333-30.333l-298.667-298.667q-12.333-12.333-30.333-12.333-18.333 0-30.5 12.167t-12.167 30.5q0 18 12.333 30.333l226 225.667h-665q-17.667 0-30.167 12.5t-12.5 30.167 12.5 30.167 30.167 12.5h665l-226 225.667q-12.333 12.333-12.333 30.333 0 18.333 12.167 30.5t30.5 12.167z" />
<glyph unicode="&#xe096;" glyph-name="arrow-up" d="M512 874.667q18 0 30.333-12.333l298.667-298.667q12.333-12.333 12.333-30.333 0-18.333-12.167-30.5t-30.5-12.167q-18 0-30.333 12.333l-225.667 226v-665q0-17.667-12.5-30.167t-30.167-12.5-30.167 12.5-12.5 30.167v665l-225.667-226q-12.333-12.333-30.333-12.333-18.333 0-30.5 12.167t-12.167 30.5q0 18 12.333 30.333l298.667 298.667q12.333 12.333 30.333 12.333z" />
<glyph unicode="&#xe097;" glyph-name="arrow-down" d="M512 874.667q17.667 0 30.167-12.5t12.5-30.167v-665l225.667 226q12.333 12.333 30.333 12.333 18.333 0 30.5-12.167t12.167-30.5q0-18-12.333-30.333l-298.667-298.667q-12.333-12.333-30.333-12.333t-30.333 12.333l-298.667 298.667q-12.333 12.333-12.333 30.333 0 18.333 12.167 30.5t30.5 12.167q18 0 30.333-12.333l225.667-226v665q0 17.667 12.5 30.167t30.167 12.5z" />
<glyph unicode="&#xe0c8;" glyph-name="location_on" d="M512 470q44 0 75 31t31 75-31 75-75 31-75-31-31-75 31-75 75-31zM512 874q124 0 211-87t87-211q0-62-31-142t-75-150-87-131-73-97l-32-34q-12 14-32 37t-72 92-91 134-71 147-32 144q0 124 87 211t211 87z" />
<glyph unicode="&#xe0d1;" glyph-name="ring_volume" d="M274 542q-148 148-152 150l60 62 152-152zM554 874v-212h-84v212h84zM902 692l-152-150-60 60 152 152zM1012 248q12-12 12-30t-12-30l-106-106q-12-12-30-12t-30 12q-56 52-114 80-24 10-24 38v132q-92 30-196 30t-196-30v-132q0-30-24-40-64-30-114-78-12-12-30-12t-30 12l-106 106q-12 12-12 30t12 30q210 200 500 200t500-200z" />
<glyph unicode="&#xe106;" glyph-name="bag" d="M512 960q43.333 0 82.833-17t68-45.5 45.5-68 17-82.833v-42.667h170.667v-640q0-53-37.5-90.5t-90.5-37.5h-512q-53 0-90.5 37.5t-37.5 90.5v640h170.667v42.667q0 43.333 17 82.833t45.5 68 68 45.5 82.833 17zM810.667 64v554.667h-597.333v-554.667q0-17.667 12.5-30.167t30.167-12.5h512q17.667 0 30.167 12.5t12.5 30.167zM512 874.667q-53 0-90.5-37.5t-37.5-90.5v-42.667h256v42.667q0 53-37.5 90.5t-90.5 37.5z" />
<glyph unicode="&#xe108;" glyph-name="flag" d="M298.667 917.333q35.333 0 76-8.833t78.333-21.333l75.333-25t78.333-21.333 76-8.833q36 0 71 4.333t59.667 10.667 44.167 12.667 29.167 10.667l9.333 4.333v-597.333q-3.333-1.667-10-4.5t-28.167-10.333-44.833-13-58.833-10.167-71.5-4.667q-35.333 0-76 8.833t-78.333 21.333l-75.333 25t-78.333 21.333-76 8.833q-63.667 0-128-14.333v-284.333q0-17.667-12.5-30.167t-30.167-12.5-30.167 12.5-12.5 30.167v853.333q3.333 1.667 10 4.5t28.167 10.333 44.833 13 58.833 10.167 71.5 4.667zM298.667 832q-65.333 0-128-17v-422.333q64 12.667 128 12.667 47.333 0 94.667-10.833t107.667-30.833q7.667-2.667 28.833-9.833t31-10.333 28.833-8.667 31.833-8 29.5-4.667 31.667-2.167q65.333 0 128 17v422.333q-64-12.667-128-12.667-47.333 0-94.667 10.833t-107.667 30.833q-7.667 2.667-28.833 9.833t-31 10.333-28.833 8.667-31.833 8-29.5 4.667-31.667 2.167z" />
<glyph unicode="&#xe116;" glyph-name="check" d="M896 746.667q18.333 0 30.5-12.167t12.167-30.5q0-18-12.333-30.333l-512-512q-12.333-12.333-30.333-12.333t-30.333 12.333l-256 256q-12.333 12.333-12.333 30.333 0 18.333 12.167 30.5t30.5 12.167q18 0 30.333-12.333l225.667-226 481.667 482q12.333 12.333 30.333 12.333z" />
<glyph unicode="&#xe117;" glyph-name="cross" d="M810.667 789.333q18.333 0 30.5-12.167t12.167-30.5q0-18-12.333-30.333l-268.667-268.333 268.667-268.333q12.333-12.333 12.333-30.333 0-18.333-12.167-30.5t-30.5-12.167q-18 0-30.333 12.333l-268.333 268.667-268.333-268.667q-12.333-12.333-30.333-12.333-18.333 0-30.5 12.167t-12.167 30.5q0 18 12.333 30.333l268.667 268.333-268.667 268.333q-12.333 12.333-12.333 30.333 0 18.333 12.167 30.5t30.5 12.167q18 0 30.333-12.333l268.333-268.667 268.333 268.667q12.333 12.333 30.333 12.333z" />
<glyph unicode="&#xe121;" glyph-name="archive" d="M256 832h512l256-256v-384q0-53-37.5-90.5t-90.5-37.5h-768q-53 0-90.5 37.5t-37.5 90.5v384zM938.667 192v298.667h-187.333q-28.333-74-94.5-122.333t-144.833-48.333q-52.333 0-101.667 22.333t-86 61.167-55 87.167h-184v-298.667q0-17.333 12.333-30t30.333-12.667h768q17.667 0 30.167 12.5t12.5 30.167zM903.333 576l-169 170.667h-443l-170.667-170.667h220.667q0-42.333 22.667-81.667t62.5-64.167 85.5-24.833 85.5 24.833 62.5 64.167 22.667 81.667h220.667z" />
<glyph unicode="&#xe122;" glyph-name="inbox" d="M512 917.333q17.667 0 30.167-12.5t12.5-30.167v-494.333l140.333 140.667q12.333 12.333 30.333 12.333 18.333 0 30.5-12.167t12.167-30.5q0-18-12.333-30.333l-213.333-213.333q-12.333-12.333-30.333-12.333t-30.333 12.333l-213.333 213.333q-12.333 13-12.333 30.333 0 17.667 12.5 30.167t30.167 12.5q18 0 30.333-12.333l140.333-140.667v494.333q0 17.667 12.5 30.167t30.167 12.5zM938.667 320q17.667 0 30.167-12.5t12.5-30.167v-170.667q0-53.333-37-90.333-37.667-37.667-90-37.667h-683.667q-52.333 0-90.667 37.333-37.333 38.333-37.333 90.667v170.667q0 17.667 12.5 30.167t30.167 12.5 30.167-12.5 12.5-30.167v-170.667q0-17.667 12.5-30.167t30.167-12.5h683.667q17.333 0 29.5 12.5t12.167 30.167v170.667q0 17.667 12.5 30.167t30.167 12.5z" />
<glyph unicode="&#xe123;" glyph-name="outbox" d="M512 915.333q18 0 30.333-12.333l213.333-213.333q12.333-12.333 12.333-30.333 0-18.333-12.167-30.5t-30.5-12.167q-18 0-30.333 12.333l-140.333 140.667v-494.333q0-17.667-12.5-30.167t-30.167-12.5-30.167 12.5-12.5 30.167v494.333l-140.333-140.667q-13-12.333-30.333-12.333-17.667 0-30.167 12.5t-12.5 30.167q0 17.333 12.333 30.333l213.333 213.333q12.333 12.333 30.333 12.333zM938.667 318q17.667 0 30.167-12.5t12.5-30.167v-170.667q0-53.333-37-90.333-37.667-37.667-90-37.667h-683.667q-52.333 0-90.667 37.333-37.333 38.333-37.333 90.667v170.667q0 17.667 12.5 30.167t30.167 12.5 30.167-12.5 12.5-30.167v-170.667q0-17.667 12.5-30.167t30.167-12.5h683.667q17.333 0 29.5 12.5t12.167 30.167v170.667q0 17.667 12.5 30.167t30.167 12.5z" />
<glyph unicode="&#xe124;" glyph-name="file" d="M213.333 960h426.667l298.667-298.667v-597.333q0-53-37.5-90.5t-90.5-37.5h-597.333q-53 0-90.5 37.5t-37.5 90.5v768q0 53 37.5 90.5t90.5 37.5zM554.667 576v298.667h-341.333q-18 0-30.333-12.333t-12.333-30.333v-768q0-18 12.333-30.333t30.333-12.333h597.333q18 0 30.333 12.333t12.333 30.333v512h-298.667zM818 661.333l-178 178v-178h178z" />
<glyph unicode="&#xe125;" glyph-name="file-add" d="M213.333 960h426.667l298.667-298.667v-597.333q0-53-37.5-90.5t-90.5-37.5h-597.333q-53 0-90.5 37.5t-37.5 90.5v768q0 53 37.5 90.5t90.5 37.5zM512 490.667q17.667 0 30.167-12.5t12.5-30.167v-85.333h85.333q17.667 0 30.167-12.5t12.5-30.167-12.5-30.167-30.167-12.5h-85.333v-85.333q0-17.667-12.5-30.167t-30.167-12.5-30.167 12.5-12.5 30.167v85.333h-85.333q-17.667 0-30.167 12.5t-12.5 30.167 12.5 30.167 30.167 12.5h85.333v85.333q0 17.667 12.5 30.167t30.167 12.5zM554.667 576v298.667h-341.333q-18 0-30.333-12.333t-12.333-30.333v-768q0-18 12.333-30.333t30.333-12.333h597.333q18 0 30.333 12.333t12.333 30.333v512h-298.667zM818 661.333l-178 178v-178h178z" />
<glyph unicode="&#xe24f;" glyph-name="insert_invitation" d="M810 150v468h-596v-468h596zM682 918h86v-86h42q34 0 60-26t26-60v-596q0-34-26-60t-60-26h-596q-36 0-61 26t-25 60v596q0 34 25 60t61 26h42v86h86v-86h340v86zM726 448v-214h-214v214h214z" />
<glyph unicode="&#xe31f;" glyph-name="laptop_chromebook" d="M854 320v426h-684v-426h684zM598 192v42h-172v-42h172zM938 192h86v-86h-1024v86h86v640h852v-640z" />
<glyph unicode="&#xe326;" glyph-name="phonelink" d="M938 234v300h-170v-300h170zM982 618q18 0 30-12t12-30v-426q0-18-12-31t-30-13h-256q-18 0-31 13t-13 31v426q0 18 13 30t31 12h256zM170 704v-470h428v-128h-598v128h86v470q0 34 25 60t59 26h768v-86h-768z" />
<glyph unicode="&#xe547;" glyph-name="local_grocery_store" d="M726 192q34 0 59-26t25-60-25-59-59-25-60 25-26 59 26 60 60 26zM42 874h140l40-84h632q18 0 30-13t12-31q0-10-6-20l-152-276q-24-44-74-44h-318l-38-70-2-6q0-10 10-10h494v-86h-512q-34 0-59 26t-25 60q0 20 10 40l58 106-154 324h-86v84zM298 192q34 0 60-26t26-60-26-59-60-25-59 25-25 59 25 60 59 26z" />
<glyph unicode="&#xe60f;" glyph-name="bluetooth_audio" d="M550 264l-80 82v-162zM470 712v-162l80 82zM670 632l-184-184 184-184-244-242h-42v324l-196-196-60 60 238 238-238 238 60 60 196-196v324h42zM834 674q62-100 62-222t-66-226l-50 50q42 84 42 172t-42 172zM608 448l98 98q20-50 20-98 0-50-20-100z" />
<glyph unicode="&#xe614;" glyph-name="event_available" d="M810 150v468h-596v-468h596zM810 832q34 0 60-26t26-60v-596q0-34-26-60t-60-26h-596q-36 0-61 26t-25 60v596q0 34 25 60t61 26h42v86h86v-86h340v86h86v-86h42zM706 488l-254-254-136 136 46 46 90-90 208 208z" />
<glyph unicode="&#xe63a;" glyph-name="ondemand_video" d="M682 490l-298-170v342zM896 234v512h-768v-512h768zM896 832q34 0 60-25t26-61l-2-512q0-34-25-59t-59-25h-214v-86h-340v86h-214q-36 0-61 25t-25 59v512q0 36 25 61t61 25h768z" />
<glyph unicode="&#xe80c;" glyph-name="school" d="M512 832l470-256v-342h-86v296l-384-210-470 256zM214 398l298-164 298 164v-172l-298-162-298 162v172z" />
<glyph unicode="&#xe8a1;" glyph-name="payment" d="M854 618v86h-684v-86h684zM854 192v256h-684v-256h684zM854 790q36 0 60-25t24-61v-512q0-36-24-61t-60-25h-684q-36 0-60 25t-24 61v512q0 36 24 61t60 25h684z" />
<glyph unicode="&#xe8f8;" glyph-name="card_travel" d="M854 362v256h-128v-84h-86v84h-256v-84h-86v84h-128v-256h684zM854 150v84h-684v-84h684zM384 790v-86h256v86h-256zM854 704q36 0 60-25t24-61v-468q0-36-24-61t-60-25h-684q-36 0-60 25t-24 61v468q0 36 24 61t60 25h128v86q0 36 25 60t61 24h256q36 0 61-24t25-60v-86h128z" />
<glyph unicode="&#xe900;" glyph-name="pinterest-logo-(1)" d="M905.592 675.263c-27.967 202.368-229.631 305.407-444.799 281.28-170.112-19.072-339.713-156.609-346.753-353.279-4.288-120.063 29.76-210.111 144-235.457 49.472 87.551-15.935 106.688-26.175 170.112-41.921 259.2 299.007 436.224 477.568 255.103 123.648-125.44 42.175-511.103-156.992-470.976-190.784 38.272 93.439 345.279-58.816 405.504-123.777 49.024-189.504-149.76-130.817-248.577-34.432-169.921-108.543-329.919-78.528-542.975 97.279 70.656 130.112 205.759 156.992 346.751 48.896-29.76 75.073-60.544 137.409-65.344 229.888-17.853 358.463 229.507 326.911 457.858z" />
<glyph unicode="&#xe901;" glyph-name="linkedin" horiz-adv-x="1003" d="M220.57-23.45h-195.652v640.034h195.652v-640.034zM117.726 696.661h-1.399c-70.793 0-116.702 48.913-116.702 110.899 0 63.215 47.275 111.138 119.501 111.138 72.124 0 116.531-47.787 117.931-110.967 0-61.986-45.807-111.070-119.33-111.070zM1003.213-23.45h-221.833v331.196c0 86.699-34.645 145.852-110.967 145.852-58.402 0-90.795-39.902-105.916-78.404-5.666-13.79-4.779-33.041-4.779-52.326v-346.317h-219.75c0 0 2.833 586.718 0 640.034h219.75v-100.454c12.971 43.93 83.149 106.633 195.277 106.633 138.991 0 248.218-92.092 248.218-290.304v-355.908z" />
<glyph unicode="&#xe902;" glyph-name="empreinte" horiz-adv-x="1045" d="M816.495 370.755c-50.636-0.555-96.817 45.071-96.262 94.59 0 26.155-0.555 79.011-1.11 79.011 0 27.82 1.67 55.64-0.555 82.904-5.566 80.683-65.66 151.901-144.115 172.49-128.533 33.941-251.502-59.54-251.502-192.523 0-48.964-45.626-93.479-95.147-91.806-12.796 0.555-21.699 8.348-22.254 20.589-0.555 11.685 7.231 21.699 20.033 22.814 16.693 1.67 31.158 6.121 41.733 19.473 7.792 10.013 11.685 21.144 11.685 33.941 1.11 117.406 84.021 215.889 200.864 235.367 139.661 23.372 264.298-72.336 281.549-205.32 3.338-25.037 2.227-50.636 2.227-75.673 0.555-32.274 0-65.101 0-97.373 0-28.936 20.033-50.636 48.964-53.974 2.783-0.555 5.566-0.555 7.792-1.11 12.796-2.783 20.033-11.685 18.916-23.372-0.555-11.685-10.013-20.033-22.814-20.033zM815.94 446.428c-13.353 0-22.254 9.458-22.254 25.594 0 27.264 0 53.974 0 81.239 0.555 0 1.67 72.336-5.566 106.831-23.372 112.395-92.925 185.287-204.765 212.551-155.797 37.837-305.476-66.77-330.513-219.788-2.227-13.353-2.783-26.71-3.338-40.060-0.555-14.468-8.904-23.927-22.254-23.927s-22.254 9.458-21.699 23.927c2.227 103.493 43.957 187.514 127.42 248.719 190.852 141.334 460.714 31.716 500.219-200.864 2.783-17.806 3.892-36.168 3.892-54.53 0.555-45.071 0-90.142 0-134.653 0.555-15.579-7.792-25.037-21.144-25.037zM228.36 413.043c35.056 1.11 67.881 8.904 97.927 26.71 64.542 38.395 97.373 95.706 99.045 169.708 1.11 50.636 37.278 90.697 89.025 95.147 47.299 4.451 92.366-30.047 101.267-77.343 1.67-8.348 1.11-17.251 1.11-26.155-10.572-156.912-84.577-272.091-227.019-341.643-50.079-24.482-104.048-35.056-159.694-35.613-15.024 0-24.482 8.348-25.037 21.144s8.348 22.254 23.372 22.254c56.2 1.11 110.17 12.241 159.694 40.060 118.516 65.66 180.281 166.371 184.731 300.465 1.11 30.047-21.699 52.86-50.636 53.419-29.493 0.555-52.301-22.254-52.301-52.86-0.555-109.614-76.228-205.32-183.621-230.912-17.806-4.451-36.722-5.566-55.64-7.231-14.468-1.67-24.482 7.231-25.037 20.033s8.348 22.254 22.814 22.814zM223.353 339.597c7.792 1.11 16.133 1.67 24.482 2.227 123.526 7.231 229.802 103.493 248.163 228.69 1.67 12.796 2.783 25.594 3.338 38.395 0.555 14.468 9.458 23.927 22.254 23.372s21.699-10.013 21.144-24.482c-4.451-129.647-65.66-223.127-181.948-281.549-36.722-18.362-78.456-27.82-119.072-28.936-5.566 0-11.131-0.555-16.133 0-11.685 1.11-19.473 9.458-20.033 20.589-0.555 10.572 6.675 20.033 17.806 21.699zM235.037 186.582c5.566 5.010 14.468 8.348 21.699 8.904 61.761 3.892 119.63 22.254 173.6 51.191 15.579 8.348 30.047 18.362 44.516 28.375 23.927 16.693 46.738 25.037 83.464 24.482 23.927-1.11 51.191-11.131 74.563-32.274 42.843-39.505 93.479-61.761 150.792-69.553 8.348-1.11 17.806-4.451 24.482-9.458s6.675-14.468 2.783-22.254c-4.451-8.904-12.241-12.796-21.699-12.241-12.241 1.11-24.482 2.227-36.168 5.010-56.757 12.241-107.948 36.722-150.792 76.784-28.936 26.71-68.998 29.493-101.267 5.566-72.89-53.419-154.684-82.348-244.825-89.025-10.572-0.555-19.473 1.67-25.037 11.685-3.338 7.792-2.783 17.251 3.892 22.814zM278.442 116.471c5.566 5.010 13.353 8.348 21.144 10.013 30.047 7.792 60.649 12.796 89.586 22.254 46.181 15.024 89.586 36.168 127.42 66.77 21.144 16.693 51.191 12.796 68.442-3.892 43.957-41.177 96.817-67.881 156.356-80.683 5.566-1.11 10.572-2.227 15.579-4.451 10.572-3.892 16.133-15.024 13.353-25.037-2.783-11.131-13.353-18.916-24.482-16.133-33.385 7.231-66.77 15.024-97.927 31.158-35.613 18.362-69.553 38.395-96.262 65.101-34.496-18.916-66.77-38.395-100.71-55.084-46.738-23.372-96.817-36.722-148.563-43.957-10.572-1.67-19.473 0-25.594 10.013-4.451 8.904-4.451 17.806 1.67 23.927zM349.659 54.711c4.451 5.010 11.685 9.458 18.362 11.131 45.626 12.241 89.025 28.936 130.203 51.191 11.685 6.121 22.814 13.353 33.941 20.033 10.013 6.121 20.033 5.566 28.375-1.11 37.837-28.936 80.124-50.636 125.752-65.66 13.913-4.451 18.916-10.572 18.916-22.254 0-15.579-13.913-25.037-30.047-20.033-15.024 5.010-30.602 10.013-44.516 16.693-26.71 13.353-52.301 28.375-77.9 43.399-5.566 3.338-8.904 3.892-14.468 0.555-50.636-30.047-105.166-52.301-162.477-66.215-10.013-2.227-18.916-0.555-25.037 8.348-6.121 8.348-7.231 17.251-1.11 23.927zM517.144 21.882c18.362 2.227 36.722 3.892 54.53 5.010 10.572 0.555 20.033-7.231 22.254-17.251 2.227-11.131-2.783-21.699-14.468-24.482-16.693-3.892-33.385-5.010-47.853-6.675-7.231 0.555-12.241 0.555-16.693 1.67-10.013 2.783-16.133 11.685-15.579 22.254 1.11 10.013 7.792 18.362 17.806 19.473zM595.598 366.307c-2.227 5.010-4.451 10.572-5.010 16.133-0.555 8.904 7.231 17.806 15.579 20.033 9.458 2.783 19.473-1.11 25.037-9.458 1.67-2.783 2.783-5.566 3.892-8.348 36.168-71.781 94.035-111.286 175.273-116.29 1.11 0 2.227 0 3.338 0 17.806-1.11 27.264-9.458 26.155-23.927-1.11-13.913-11.685-21.144-28.936-20.033-98.487 7.231-171.379 52.86-215.334 141.888zM809.819 341.824c5.010 0 9.458-0.555 13.913-1.67 10.013-2.227 16.133-10.572 16.133-20.589s-6.121-19.473-16.133-20.033c-11.685-1.11-23.927-1.11-35.613 1.11-84.577 15.579-141.334 84.021-141.334 169.708 0 47.853 0.555 95.706 0 144.115-0.555 57.311-52.301 121.854-128.533 120.189-75.673-1.67-123.526-70.663-122.411-126.864 1.67-89.586-76.228-165.259-166.371-164.698-13.353 0-22.814 7.792-23.372 20.033-0.555 12.796 7.792 21.144 21.699 23.372 16.133 2.783 32.83 3.338 47.299 10.013 50.636 22.254 77.343 61.205 77.9 116.29 0.555 79.011 59.54 149.676 138.551 163.032 109.058 18.362 198.645-64.542 198.645-164.142 0-23.372 0-47.299 0-70.663 0-24.482 0-48.409 0-72.89-0.555-65.66 53.419-122.411 119.63-126.309z" />
<glyph unicode="&#xe903;" glyph-name="message" horiz-adv-x="1007" d="M504.273 756.092c157.164 0 314.345 0 471.529 0 3.353 0 6.742 0.041 10.095-0.222 12.948-1.005 21.336-9.866 21.399-22.834 0.102-24.011 0.017-47.994 0.017-71.985 0-164.584 0-329.166 0-493.771 0-19.384-8.204-27.541-27.937-27.541-132.824-0.041-265.672-0.017-398.497-0.017-182.815 0-365.631 0-548.425 0-2.592 0-5.2-0.102-7.773 0.041-15.644 0.74-24.154 9.578-24.154 25.119-0.017 78.682 0 157.37 0 236.051 0 107.072 0.475 214.122-0.307 321.17-0.222 29.352 11.387 34.284 34.078 34.223 156.651-0.43 313.297-0.222 469.969-0.222zM504.539 419.728c136.157 96.648 272.433 193.42 410.401 291.347-274.575 0-546.641 0-820.72 0 137.655-97.741 273.687-194.326 410.321-291.347zM93.071 183.882c274.468 0 546.498 0 820.597 0-111.55 79.321-221.397 157.433-331.017 235.415-0.985-0.475-1.499-0.62-1.909-0.906-20.123-14.489-40.247-28.986-60.392-43.474-12.21-8.777-20.862-8.675-33.216 0.27-20.473 14.802-40.988 29.576-61.52 44.378-110.624-78.393-220.8-156.482-332.537-235.683zM45.878 689.965c0-162.176 0-322.855 0-485.038 113.914 81.111 226.805 161.503 340.576 242.506-113.771 81.029-226.66 161.418-340.576 242.528zM621.395 447.438c113.771-81.006 226.66-161.395 340.576-242.506 0 162.159 0 322.855 0 485.038-113.914-81.111-226.805-161.503-340.576-242.528z" />
<glyph unicode="&#xe904;" glyph-name="telephone" horiz-adv-x="1040" d="M797.141 629.786v-345.428c0-3.691 0-6.596 0-9.517 0.016-85.893 0.016-171.768 0.049-257.657 0.016-39.225-34.144-76.493-73.572-79.982-7.706-0.689-15.477-1.109-23.214-1.109-121.327-0.069-242.654-0.101-363.997 0.049-9.348 0.016-18.885 0.589-28.031 2.416-42.015 8.36-65.041 50.895-64.979 81.442 0.669 284.668 0.807 569.319-0.085 853.967-0.117 38.138 29.911 86.041 86.111 85.978 127.434-0.149 254.858 0.049 382.293-0.117 48.244-0.049 78.202-33.569 84.799-70.682 0.621-3.457 0.637-7.048 0.637-10.591 0.032-80.152 0-160.32-0.016-240.472 0-2.416 0-4.817 0-8.291zM290.535 16.036c0.049-4.668 1.864-9.668 4.047-13.914 7.956-15.477 21.855-20.326 38.588-20.326 120.755 0.101 241.497 0.069 362.265 0.069 5.54 0 11.078-0.201 16.602 0.049 21.621 0.989 38.020 15.008 38.372 34.362 0.589 32.163 0.117 64.341 0.049 96.498 0 0.722-0.552 1.445-0.956 2.416-152.799 0-305.552 0-458.567 0-0.234-1.409-0.552-2.432-0.552-3.457-0.032-31.892-0.201-63.801 0.149-95.697zM750.077 138.437c0 48.964 0 97.103 0 146.102v345.747c0 64.121 0 127.72 0 191.759-153.304 0-306.052 0-459.272 0 0-227.981 0-455.545 0-683.61 153.505 0 306.437 0 459.272 0zM750.326 877.004c-0.754 7.032-3.006 14.452-6.58 20.564-7.972 13.548-21.636 16.548-36.492 16.548-124.614-0.049-249.249-0.032-373.883-0.032-2.199 0-4.429 0.049-6.628-0.169-20.176-1.896-35.302-15.359-36.225-33.002-0.621-11.668-0.117-23.416-0.117-35.667 153.891 0 306.824 0 460.212 0 0 11.109 0.807 21.536-0.286 31.759zM520.246 93.033c24.356 0.101 42.904-18.296 42.721-42.384-0.186-22.359-19.926-41.324-42.784-41.105-23.485 0.217-42.318 19.135-42.233 42.403 0.101 23.127 18.481 41.004 42.301 41.089zM520.615 30.611c10.591 0.101 19.469 8.828 19.571 19.236 0.117 10.608-9.332 19.943-19.989 19.773-10.341-0.169-19.64-9.267-19.773-19.353-0.149-10.426 9.448-19.756 20.193-19.655z" />
<glyph unicode="&#xe905;" glyph-name="noun_43356_cc" horiz-adv-x="998" d="M978.035 530.151h-30.977c-5.564 35.809-37.483 63.314-79.138 68.302-10.175 89.239-41.153 163.265-96.968 217.261-109.027 105.347-263.060 102.312-272.072 102.105-8.744 0.207-163.181 3.241-272.221-102.179-55.816-54.006-86.794-127.96-96.968-217.188-41.594-4.989-73.586-32.495-79.151-68.302h-33.717c-10.175 0-18.49-8.317-18.49-18.49v-129.964c0-10.175 8.317-18.48 18.49-18.48h33.717c6.066-39.501 43.977-70.541 91.551-70.541 51.854 0 94.021 36.175 94.021 80.655v146.633c0 37.129-29.889 67.079-69.746 76.473 9.541 79.494 36.97 144.983 85.78 192.422 91.428 88.604 223.779 91.991 243.554 91.991 3.034 0 2.679 0 3.107 0h0.721c1.884 0 147.588 3.399 245.951-91.918 48.809-47.44 76.24-113.002 85.78-192.507-39.869-9.392-69.758-39.344-69.758-76.473v-146.646c0-38.634 32.432-69.39 74.735-77.329-3.167-42.033-24.399-163.852-146.719-217.846-10.97 28.582-38.34 49.175-70.834 49.175h-75.873c-42.033 0-76.191-34.084-76.191-76.044 0-42.082 34.144-76.324 76.191-76.324h75.873c37.263 0 66.934 27.443 73.513 62.896 152.284 58.42 177.049 209.311 180.939 257.838 39.134 6.727 68.682 33.215 73.941 67.52h30.977c10.175 0 18.48 8.303 18.48 18.48v129.99c0 10.187-8.303 18.49-18.49 18.49zM44.717 400.174h-9.392v93.007h9.392v-93.007zM199.153 519.964v-146.646c0-24.118-25.56-43.685-57.051-43.685-31.394 0-56.965 19.567-56.965 43.685v146.646c0 24.118 25.571 43.685 56.965 43.685 31.49 0 57.051-19.567 57.051-43.685zM618.667 11.931h-75.873c-21.598 0-39.221 17.611-39.221 39.344 0 21.524 17.624 39.073 39.221 39.073h75.873c21.659 0 39.282-17.55 39.282-39.073 0-21.732-17.624-39.344-39.282-39.344zM912.485 373.317c0-24.118-25.56-43.685-56.979-43.685-31.479 0-57.051 19.567-57.051 43.685v146.646c0 24.118 25.571 43.685 57.051 43.685 31.406 0 56.979-19.567 56.979-43.685v-146.646zM959.558 400.174h-9.392v93.007h9.392v-93.007z" />
<glyph unicode="&#xe906;" glyph-name="24-heures" horiz-adv-x="1032" d="M516.166 3.166c-119.346 0-230.012 45.568-312.469 130.195-8.68 8.68-8.68 21.7 0 30.379s21.7 8.68 30.379 0c75.947-75.947 175.764-117.176 282.091-117.176s208.313 41.229 282.091 117.176c117.176 117.176 149.725 290.769 84.627 442.665-4.339 10.849 0 23.869 10.849 28.209s23.869 0 28.209-10.849c73.778-167.084 36.888-360.208-93.307-490.403-82.457-84.627-195.293-130.195-312.469-130.195zM257.946-64.102c-10.849 0-19.529 6.51-21.7 17.359l-41.229 190.954c-2.17 10.849 4.339 21.7 17.359 26.039l190.954 41.229c10.849 2.17 21.7-4.339 26.039-17.359 2.17-10.849-4.339-21.7-17.359-26.039l-169.254-36.888 36.888-169.254c2.17-10.849-4.339-21.7-17.359-26.039 0 0-2.17 0-4.339 0zM129.919 257.047c-8.68 0-15.19 4.339-19.529 13.020-73.778 167.084-36.888 360.208 93.307 488.233 173.594 173.594 453.514 173.594 627.108 0 8.68-8.68 8.68-21.7 0-30.379s-21.7-8.68-30.379 0c-156.235 156.235-412.286 156.235-566.35 0-117.176-117.176-151.895-290.769-84.627-442.665 4.339-10.849 0-23.869-10.849-28.209-2.17 0-6.51 0-8.68 0zM624.662 682.353c-10.849 0-19.529 6.51-21.7 17.359s4.339 21.7 17.359 26.039l169.254 36.888-36.888 169.254c-2.17 10.849 4.339 21.7 17.359 26.039 10.849 2.17 21.7-4.339 26.039-17.359l41.229-190.954c2.17-6.51 0-10.849-2.17-15.19s-8.68-8.68-13.020-8.68l-190.954-41.229c-4.339-2.17-6.51-2.17-6.51-2.17zM349.083 476.209c6.51 8.68 8.68 17.359 8.68 26.039s-4.339 17.359-10.849 21.7c-6.51 6.51-15.19 8.68-26.039 8.68-17.359 0-32.549-8.68-45.568-28.209l-30.379 17.359c8.68 15.19 19.529 26.039 32.549 32.549 10.849 6.51 26.039 10.849 45.568 10.849s34.719-6.51 49.908-17.359c13.020-10.849 21.7-28.209 21.7-47.739 0-10.849-2.17-21.7-8.68-32.549s-17.359-23.869-32.549-39.059l-52.078-52.078h99.817v-36.888h-151.895v32.549l67.268 67.268c15.19 15.19 26.039 28.209 32.549 36.888zM524.847 430.641v41.229h34.719v-41.229h26.039v-34.719h-26.039v-56.418h-34.719v56.418h-95.476v32.549l82.457 132.366h41.229l-80.288-130.195h52.078zM661.552 432.811v-91.137h-36.888v234.352h34.719v-97.647c4.339 10.849 13.020 19.529 23.869 23.869 10.849 6.51 21.7 8.68 32.549 8.68 19.529 0 34.719-6.51 45.568-17.359s17.359-28.209 17.359-49.908v-104.156h-34.719v93.307c0 30.379-13.020 47.739-39.059 47.739-13.020 0-23.869-4.339-32.549-13.020-6.51-8.68-10.849-19.529-10.849-34.719z" />
<glyph unicode="&#xe907;" glyph-name="logistique" horiz-adv-x="1028" d="M443.043 146.824c-8.606 0-17.209 6.454-19.361 15.059l-200.066 688.402c-10.755 40.875-51.63 62.386-92.505 51.63-38.722-10.755-62.386-53.782-49.479-92.505 2.152-10.755-4.302-23.663-15.059-25.815-10.755-4.302-23.663 2.152-25.815 15.059-19.361 60.236 17.209 126.923 79.597 144.135s126.923-17.209 144.135-79.597l197.914-688.402c4.302-10.755-4.302-23.663-15.059-25.815 0-2.152-2.152-2.152-4.302-2.152zM537.698 86.587c-8.606 0-17.209 6.454-19.361 15.059-4.302 10.755 4.302 23.663 15.059 25.815l443.157 126.923c10.755 2.152 23.663-4.302 25.815-15.059 4.302-10.755-4.302-23.663-15.059-25.815l-443.157-126.923c-2.152 0-4.302 0-6.454 0zM443.043-64.001c-55.932 0-105.412 36.57-120.469 90.353-8.606 32.268-6.454 66.69 10.755 96.806s43.024 51.63 75.293 60.236c10.755 4.302 23.663 4.302 34.42 4.302 55.932 0 105.412-36.57 120.469-90.353 19.361-66.69-19.361-137.681-86.051-157.042-10.755-2.152-21.513-4.302-34.42-4.302zM443.043 146.824c-8.606 0-15.059-2.152-23.663-4.302-21.513-6.454-38.722-21.513-49.479-40.875s-12.907-43.024-6.454-64.538c10.755-36.57 43.024-60.236 79.597-60.236 8.606 0 15.059 2.152 23.663 4.302 45.177 12.907 70.992 60.236 58.084 103.26-10.755 36.57-43.024 62.386-81.747 62.386zM529.093 191.999l-118.319 410.889 417.343 120.469 118.319-410.889-417.343-120.469zM462.404 574.921l94.654-329.142 337.748 96.806-94.654 329.142-337.748-96.806z" />
<glyph unicode="&#xe908;" glyph-name="triangle" horiz-adv-x="947" d="M169.416 22.761c-19.006 0-33.261 4.754-47.512 14.256-28.513 14.256-42.764 42.764-42.764 76.018v0c0 33.261 9.502 646.181 9.502 669.935 0 33.261 19.006 61.764 47.512 76.018s61.764 14.256 90.275 0c23.759-14.256 546.403-318.342 593.914-342.097 28.513-19.006 47.512-47.512 42.764-76.018 0-33.261-19.006-61.764-47.512-76.018-38.013-19.006-570.154-308.839-603.421-327.844-14.256-9.502-28.513-14.256-42.764-14.256zM174.166 113.038v0 0 0zM183.673 773.478c0-71.268-9.502-579.662-9.502-655.684 57.016 28.513 513.146 280.327 589.164 323.093-80.771 42.764-527.399 304.085-579.662 332.596z" />
<glyph unicode="&#xe909;" glyph-name="reseau" d="M1023.874 847.839c0 80.65-65.643 146.293-146.293 146.293-72.329 0-132.436-52.858-144.073-121.903h-443.269c-11.637 69.045-71.744 121.903-144.073 121.903-80.65 0-146.293-65.643-146.293-146.293 0-72.329 52.858-132.436 121.903-144.073v-443.269c-69.045-11.637-121.903-71.744-121.903-144.073 0-80.65 65.643-146.293 146.293-146.293 72.329 0 132.436 52.858 144.073 121.903h443.269c11.637-69.045 71.744-121.903 144.073-121.903 80.65 0 146.293 65.643 146.293 146.293 0 72.329-52.858 132.436-121.903 144.073v443.269c69.045 11.637 121.903 71.744 121.903 144.073zM877.581 18.915c-45.294 0-83.176 31.185-94.076 73.12-2.015 7.866-3.436 15.928-3.436 24.391s1.43 16.525 3.436 24.391c2.329 8.83 5.819 17.143 10.371 24.836 4.216 7.119 8.972 13.891 14.759 19.71 5.819 5.787 12.591 10.554 19.71 14.759 7.693 4.552 16.005 8.039 24.836 10.371 7.866 2.015 15.928 3.436 24.391 3.436s16.525-1.43 24.391-3.436c41.935-10.901 73.12-48.782 73.12-94.076 0.010-53.744-43.744-97.501-97.501-97.501zM243.679 116.425c0-8.463-1.43-16.525-3.436-24.391-10.901-41.935-48.782-73.12-94.076-73.12-53.757 0-97.511 43.754-97.511 97.511 0 45.294 31.185 83.176 73.12 94.076 7.866 2.015 15.928 3.436 24.391 3.436s16.525-1.43 24.391-3.436c8.83-2.329 17.143-5.819 24.836-10.371 7.119-4.216 13.891-8.972 19.71-14.759 5.787-5.819 10.554-12.591 14.759-19.71 4.552-7.693 8.039-16.005 10.371-24.836 2.015-7.878 3.446-15.939 3.446-24.402zM146.169 945.35c45.294 0 83.176-31.185 94.076-73.12 2.015-7.866 3.436-15.928 3.436-24.391s-1.43-16.525-3.436-24.391c-2.329-8.83-5.819-17.143-10.371-24.836-4.216-7.119-8.972-13.891-14.759-19.71-5.819-5.787-12.591-10.554-19.71-14.759-7.693-4.552-16.005-8.039-24.836-10.371-7.866-2.015-15.928-3.436-24.391-3.436s-16.525 1.43-24.391 3.436c-41.935 10.901-73.12 48.782-73.12 94.076-0.010 53.744 43.744 97.501 97.501 97.501zM780.071 847.839c0 8.463 1.43 16.525 3.436 24.391 10.901 41.935 48.782 73.12 94.076 73.12 53.757 0 97.511-43.754 97.511-97.511 0-45.294-31.185-83.176-73.12-94.076-7.866-2.015-15.928-3.436-24.391-3.436s-16.525 1.43-24.391 3.436c-8.83 2.329-17.143 5.819-24.836 10.371-7.119 4.216-13.891 8.972-19.71 14.759-5.787 5.819-10.554 12.591-14.759 19.71-4.552 7.693-8.039 16.005-10.371 24.836-2.015 7.878-3.446 15.939-3.446 24.402zM623.885 370.123c-5.765-5.765-12.092-10.954-18.681-15.799-26.223-19.18-58.415-30.654-93.329-30.654s-67.105 11.487-93.329 30.654c-6.577 4.843-12.906 10.034-18.681 15.799s-10.954 12.092-15.799 18.681c-19.18 26.223-30.654 58.415-30.654 93.329s11.487 67.105 30.654 93.329c4.843 6.577 10.034 12.906 15.799 18.681s12.092 10.954 18.681 15.799c26.223 19.18 58.415 30.654 93.329 30.654s67.105-11.487 93.329-30.654c6.577-4.843 12.906-10.034 18.681-15.799s10.954-12.092 15.799-18.681c19.18-26.223 30.654-58.415 30.654-93.329s-11.487-67.105-30.654-93.329c-4.843-6.589-10.034-12.916-15.799-18.681zM758.486 763.201l-118.522-118.478c-35.291 27.859-79.73 44.654-128.090 44.654s-92.797-16.795-128.090-44.654l-118.522 118.478c12.537 17.598 21.237 38.077 24.977 60.248h443.269c3.738-22.17 12.438-42.65 24.977-60.248zM170.559 703.767c22.17 3.738 42.65 12.428 60.248 24.977l118.489-118.522c-27.859-35.291-44.654-79.73-44.654-128.090s16.795-92.797 44.654-128.090l-118.489-118.522c-17.598 12.537-38.077 21.237-60.248 24.977v443.269zM265.263 201.064l118.522 118.489c35.291-27.859 79.73-44.654 128.090-44.654s92.797 16.795 128.090 44.654l118.522-118.489c-12.537-17.598-21.237-38.077-24.977-60.248h-443.269c-3.738 22.17-12.438 42.65-24.977 60.248zM853.191 260.498c-22.17-3.738-42.65-12.428-60.248-24.977l-118.478 118.522c27.859 35.291 44.654 79.73 44.654 128.090s-16.795 92.797-44.654 128.090l118.489 118.522c17.598-12.537 38.077-21.237 60.248-24.977v-443.269z" />
<glyph unicode="&#xe90a;" glyph-name="portefeuille" d="M992.297 466.133h-43.341v225.294c0 9.152-6.238 16.587-13.943 16.587-5.223-0.087-559.275-8.915-753.197 0.021-23.484 1.089-80.379 7.921-101.337 47.928-13.307 25.394-8.58 56.55 14.018 92.617l36.704-22.998c-9.518-15.174-19.372-36.088-12.347-49.493 8.073-15.411 38.431-23.538 64.946-24.746 192.594-8.892 745.308-0.087 750.844 0.011 31.944 0 57.64-26.872 57.64-59.917v-225.305zM177.434 27.535c-18.055 0-77.508 3.465-122.004 45.251-33.455 31.447-50.42 76.494-50.42 133.886v499.725c-1.22 10.911-5.136 65.324 32.657 109.182 31.329 36.38 81.48 54.823 149.006 54.823v-43.32c-54.112 0-93.092-13.263-115.875-39.423-28.437-32.646-22.75-76.407-22.685-76.839l0.216-3.087v-501.062c0-44.808 12.281-79.149 36.498-102.050 38.527-36.444 96.147-33.692 96.708-33.682l753.467 0.043c7.705 0 13.943 7.446 13.943 16.62v216.067h43.341v-216.067c0-33.045-25.696-59.938-57.284-59.938h-752.182c-0.27-0.033-2.17-0.129-5.385-0.129zM871.782 786.429h-43.33v24.055c0 9.152-6.271 16.608-13.954 16.608h-288.007v43.32h288.007c31.588 0 57.284-26.883 57.284-59.928v-24.055zM898.039 795.452c-228.975 46.373-457.917 92.768-686.869 139.153-10.468 2.126-24.789-2.904-26.645-15.13-6.648-43.783-13.285-87.546-19.933-131.306-4.134-27.336 37.6-39.067 41.786-11.515 6.637 43.773 13.274 87.546 19.911 131.306-8.882-5.040-17.753-10.091-26.645-15.13 228.952-46.384 457.938-92.768 686.869-139.141 27.294-5.525 38.894 36.218 11.526 41.765v0zM522.045 790.455c-69.047 15.12-138.073 30.25-207.11 45.369-11.106 2.428-23.937-3.172-26.645-15.12-3.604-15.961-7.209-31.89-10.792-47.841-6.151-27.207 35.625-38.765 41.765-11.505 3.604 15.929 7.198 31.869 10.803 47.82-8.892-5.028-17.764-10.079-26.656-15.12 69.026-15.13 138.073-30.25 207.11-45.369 27.228-5.978 38.819 35.797 11.526 41.765v0zM975.030 293.029h-178.328c-44.118 0-48.866 29.117-48.866 41.625v105.891c0 12.53 4.748 41.647 48.866 41.647h178.316c44.085 0 48.845-29.117 48.845-41.647v-105.891c0.011-12.509-4.748-41.625-48.834-41.625zM787.809 333.855c1.457-0.389 4.199-0.875 8.892-0.875h178.316c4.683 0 7.425 0.486 8.871 0.875 0.021 0.227 0.021 0.507 0.021 0.798v105.891c0 0.291 0 0.572-0.021 0.821-1.446 0.389-4.199 0.875-8.871 0.875h-178.316c-4.706 0-7.435-0.486-8.892-0.875 0-0.248-0.021-0.528-0.021-0.821v-105.891c0-0.291 0.021-0.561 0.021-0.798z" />
<glyph unicode="&#xe90b;" glyph-name="caddie" d="M807.179-29.867c-58.191 0-105.571 47.381-105.571 105.571s47.381 105.571 105.571 105.571 105.571-47.381 105.571-105.571-47.381-105.571-105.571-105.571zM807.179 139.047c-34.923 0-63.343-28.42-63.343-63.343s28.42-63.343 63.343-63.343 63.343 28.42 63.343 63.343-28.42 63.343-63.343 63.343zM384.894-29.867c-58.191 0-105.571 47.381-105.571 105.571s47.381 105.571 105.571 105.571 105.571-47.381 105.571-105.571-47.381-105.571-105.571-105.571zM384.894 139.047c-34.923 0-63.343-28.42-63.343-63.343s28.42-63.343 63.343-63.343 63.343 28.42 63.343 63.343-28.42 63.343-63.343 63.343zM891.637 223.505h-487.361c-70.227 0-131.162 49.957-144.929 118.789l-102.911 514.64h-109.372c-11.655 0-21.115 9.459-21.115 21.115s9.459 21.115 21.115 21.115h126.686c10.051 0 18.707-7.094 20.692-16.976l106.332-531.573c9.839-49.196 53.334-84.88 103.503-84.88h487.361c11.655 0 21.115-9.459 21.115-21.115s-9.459-21.115-21.115-21.115zM859.29 392.419h-579.967c-11.655 0-21.115 9.459-21.115 21.115s9.459 21.115 21.115 21.115h579.967c31.883 0 58.909 23.859 62.879 55.488l30.025 240.112h-736.214c-11.655 0-21.115 9.459-21.115 21.115s9.459 21.115 21.115 21.115h760.115c6.081 0 11.824-2.618 15.836-7.137s5.87-10.599 5.109-16.595l-32.98-263.844c-6.588-52.744-51.646-92.481-104.769-92.481zM596.037 730.248c-5.405 0-10.81 2.070-14.949 6.165l-196.194 196.237-96.831-96.831 69.508-69.508c8.235-8.235 8.235-21.621 0-29.855s-21.621-8.235-29.855 0l-84.458 84.458c-8.235 8.235-8.235 21.621 0 29.855l126.686 126.686c8.235 8.235 21.621 8.235 29.855 0l211.143-211.143c8.235-8.235 8.235-21.621 0-29.855-4.096-4.138-9.501-6.208-14.907-6.208zM722.723 730.248c-11.655 0-21.115 9.459-21.115 21.115v190.029h-126.686v-147.801c0-11.655-9.459-21.115-21.115-21.115s-21.115 9.459-21.115 21.115v168.914c0 11.655 9.459 21.115 21.115 21.115h168.914c11.655 0 21.115-9.459 21.115-21.115v-211.143c0-11.655-9.459-21.115-21.115-21.115zM846.41 730.248c-5.405 0-10.81 2.070-14.949 6.165-8.235 8.235-8.235 21.621 0 29.855l61.865 61.865c12.542 12.499 19.425 29.138 19.425 46.874s-6.884 34.331-19.425 46.874c-25.886 25.886-67.946 25.886-93.79 0.084l-61.865-61.865c-8.235-8.235-21.621-8.235-29.855 0s-8.235 21.621 0 29.855l61.865 61.865c42.314 42.314 111.146 42.314 153.459 0 20.523-20.565 31.841-47.803 31.841-76.771s-11.318-56.249-31.798-76.729l-61.865-61.865c-4.096-4.138-9.501-6.208-14.907-6.208z" />
<glyph unicode="&#xe90c;" glyph-name="cadeau" d="M917.208 140.8h-810.665c-58.837 0-106.666 47.872-106.666 106.666v469.333c0 58.795 47.829 106.666 106.666 106.666h810.665c58.837 0 106.666-47.872 106.666-106.666v-469.333c0-58.795-47.829-106.666-106.666-106.666zM106.542 780.799c-35.285 0-64-28.715-64-64v-469.333c0-35.285 28.715-64 64-64h810.665c35.285 0 64 28.715 64 64v469.333c0 35.285-28.715 64-64 64h-810.665zM319.875 354.133h-170.666c-11.776 0-21.334 9.557-21.334 21.334s9.557 21.334 21.334 21.334h170.666c11.776 0 21.334-9.557 21.334-21.334s-9.557-21.334-21.334-21.334zM447.875 268.8h-298.666c-11.776 0-21.334 9.557-21.334 21.334s9.557 21.334 21.334 21.334h298.666c11.776 0 21.334-9.557 21.334-21.334s-9.557-21.334-21.334-21.334zM618.541 482.133c-103.082 0-195.583 68.949-224.938 167.68-5.632 18.944-1.962 39.040 10.069 55.167 15.744 21.205 43.562 30.891 68.522 23.424 98.731-29.355 167.68-121.856 167.68-224.938 0-11.776-9.557-21.334-21.334-21.334zM454.574 688.34c-6.315 0-12.586-3.327-16.725-8.875-2.304-3.072-5.802-9.429-3.371-17.494 21.845-73.429 86.357-126.72 161.322-135.807-9.045 74.922-62.336 139.52-135.807 161.365-1.792 0.512-3.626 0.811-5.419 0.811zM618.541 482.133c-11.776 0-21.334 9.557-21.334 21.334 0 103.082 68.949 195.583 167.68 224.938 24.96 7.466 52.736-2.261 68.522-23.424 12.032-16.127 15.701-36.266 10.069-55.167-29.355-98.731-121.856-167.68-224.938-167.68zM782.51 688.34c-1.792 0-3.626-0.299-5.461-0.811-73.429-21.845-126.762-86.4-135.807-161.365 74.965 9.045 139.52 62.336 161.322 135.807 2.432 8.064-1.066 14.421-3.371 17.494-4.096 5.546-10.367 8.875-16.682 8.875zM618.541 140.8c-11.776 0-21.334 9.557-21.334 21.334v639.999c0 11.776 9.557 21.334 21.334 21.334s21.334-9.557 21.334-21.334v-639.999c0-11.776-9.557-21.334-21.334-21.334zM490.541 354.133c-5.461 0-10.922 2.091-15.104 6.229-8.32 8.32-8.32 21.845 0 30.165l128 128c8.32 8.32 21.845 8.32 30.165 0s8.32-21.845 0-30.165l-128-128c-4.139-4.139-9.6-6.229-15.061-6.229zM746.541 354.133c-5.461 0-10.922 2.091-15.104 6.229l-128 128c-8.32 8.32-8.32 21.845 0 30.165s21.845 8.32 30.165 0l128-128c8.32-8.32 8.32-21.845 0-30.165-4.139-4.139-9.6-6.229-15.061-6.229zM1002.541 482.133h-981.332c-11.776 0-21.334 9.557-21.334 21.334s9.557 21.334 21.334 21.334h981.332c11.776 0 21.334-9.557 21.334-21.334s-9.557-21.334-21.334-21.334z" />
<glyph unicode="&#xe90d;" glyph-name="reduction" d="M406.468-28.823c-5.45 0-10.9 2.087-15.073 6.216l-383.217 383.217c-8.303 8.303-8.303 21.8 0 30.104l596.116 596.116c4.003 4.003 9.41 6.26 15.073 6.26h383.217c11.752 0 21.29-9.538 21.29-21.29v-383.217c0-5.663-2.257-11.071-6.216-15.073l-596.116-596.116c-4.173-4.13-9.623-6.216-15.073-6.216zM53.354 375.684l353.114-353.114 574.826 574.826v353.114h-353.114l-574.826-574.826zM789.685 652.451c-58.718 0-106.449 47.775-106.449 106.449s47.731 106.449 106.449 106.449 106.449-47.775 106.449-106.449-47.731-106.449-106.449-106.449zM789.685 822.771c-35.213 0-63.87-28.656-63.87-63.87s28.656-63.87 63.87-63.87 63.87 28.656 63.87 63.87-28.656 63.87-63.87 63.87zM449.047 226.655c-11.752 0-21.29 9.538-21.29 21.29v340.638c0 11.752 9.538 21.29 21.29 21.29s21.29-9.538 21.29-21.29v-340.638c0-11.752-9.538-21.29-21.29-21.29zM321.308 396.973c-35.213 0-63.87 28.656-63.87 63.87s28.656 63.87 63.87 63.87 63.87-28.656 63.87-63.87-28.656-63.87-63.87-63.87zM321.308 482.133c-11.71 0-21.29-9.538-21.29-21.29s9.58-21.29 21.29-21.29 21.29 9.538 21.29 21.29-9.58 21.29-21.29 21.29zM576.786 311.815c-35.213 0-63.87 28.656-63.87 63.87s28.656 63.87 63.87 63.87 63.87-28.656 63.87-63.87-28.656-63.87-63.87-63.87zM576.786 396.973c-11.71 0-21.29-9.538-21.29-21.29s9.58-21.29 21.29-21.29 21.29 9.538 21.29 21.29-9.58 21.29-21.29 21.29z" />
<glyph unicode="&#xe90e;" glyph-name="carte-cadeau" d="M101.398 849.367h819.701c32.587-1.253 65.174-18.801 83.975-45.12 11.281-16.294 18.801-36.348 18.801-56.401v-531.427c-1.253-22.561-10.028-45.12-23.814-62.668-18.801-23.814-48.881-37.6-78.963-38.854h-819.701c-21.306 1.253-42.615 8.773-58.908 21.306-25.067 18.801-41.362 48.881-42.615 81.469v531.427c1.253 26.321 12.533 51.388 30.082 70.189 17.547 17.547 45.12 30.082 71.441 30.082zM60.039 757.871c-2.507-8.773-2.507-17.547-2.507-26.321 0-15.040 0-28.828 0-43.868 303.313 0 606.628 0 909.943 0 0 18.801 0 37.6 0 56.401 0 6.267-1.253 11.281-2.507 16.294-6.267 18.801-25.067 31.334-45.12 31.334-270.726 0-542.707 0-813.433 0-21.306 0-40.107-13.786-46.374-33.84zM58.785 648.828c0-26.321 0-51.388 0-77.709 303.313 0 606.628 0 909.943 0 0 26.321 0 51.388 0 77.709-304.568 0-607.881 0-909.943 0zM58.785 532.266c0-104.029 0-208.058 0-310.836 0-6.267 1.253-12.533 3.761-18.801 7.52-17.547 25.067-31.334 45.12-31.334 270.726 0 542.707 0 813.433 0 12.533 0 25.067 5.013 33.84 15.040 8.773 8.773 13.786 21.306 13.786 33.84 0 104.029 0 208.058 0 312.088-304.568 0-607.881 0-909.943 0zM664.159 484.637c31.334 8.773 67.682-2.507 90.242-26.321 13.786 12.533 31.334 21.306 48.881 25.067 17.547 2.507 36.348 1.253 53.896-6.267 15.040-6.267 28.828-17.547 37.6-30.082 10.028-15.040 17.547-32.587 17.547-51.388 0-11.281 0-22.561-3.761-33.84-7.52-26.321-23.814-51.388-43.868-70.189-23.814-23.814-53.896-42.615-83.975-56.401-11.281-5.013-21.306-10.028-32.587-13.786-11.281 3.761-21.306 10.028-32.587 15.040-32.587 17.547-63.921 38.854-87.735 67.682-15.040 17.547-26.321 38.854-32.587 61.416-3.761 13.786-3.761 27.574-2.507 41.362 2.507 18.801 11.281 37.6 25.067 51.388 12.533 12.533 27.574 21.306 46.374 26.321zM667.92 445.783c-21.306-7.52-36.348-28.828-35.095-51.388 0-6.267 0-13.786 2.507-20.054 5.013-16.294 12.533-32.587 23.814-45.12 12.533-15.040 28.828-28.828 45.12-40.107 13.786-10.028 30.082-17.547 45.12-26.321 33.84 13.786 66.429 33.84 92.749 60.162 13.786 13.786 25.067 31.334 30.082 50.135 1.253 6.267 1.253 12.533 1.253 18.801 0 15.040-6.267 30.082-17.547 40.107-10.028 8.773-22.561 13.786-35.095 13.786-16.294 0-32.587-7.52-42.615-20.054-5.013-5.013-7.52-12.533-12.533-16.294-6.267-5.013-16.294-3.761-22.561 0-5.013 3.761-7.52 11.281-11.281 16.294-16.294 20.054-42.615 27.574-63.921 20.054zM135.24 426.982c77.709 0 155.417 0 233.126 0 10.028 0 20.054-8.773 20.054-18.801s-8.773-20.054-18.801-20.054c-77.709 0-155.417 0-233.126 0-6.267 0-12.533 3.761-16.294 8.773-3.761 6.267-3.761 13.786-1.253 20.054 3.761 5.013 10.028 8.773 16.294 10.028zM135.24 329.22c96.508 0 194.271 0 290.78 0 6.267 0 12.533-2.507 16.294-7.52 5.013-6.267 6.267-15.040 1.253-21.306-3.761-6.267-10.028-10.028-17.547-10.028-96.508 0-193.019 0-289.527 0-6.267 0-13.786 3.761-16.294 10.028-3.761 6.267-3.761 13.786 0 18.801 2.507 6.267 8.773 10.028 15.040 10.028z" />
<glyph unicode="&#xe90f;" glyph-name="noun_223228_cc" d="M660.74 14.34h-382.741c-58.644 0-106.316 47.716-106.316 106.316v246.357l-163.899 163.899c-6.081 6.081-7.91 15.225-4.592 23.178s11.057 13.099 19.648 13.099h637.9c58.644 0 106.316-47.716 106.316-106.316v-340.214c0-58.603-47.672-106.316-106.316-106.316zM74.169 524.66l133.788-133.788c3.998-3.998 6.252-9.398 6.252-15.054v-255.161c0-35.169 28.621-63.79 63.79-63.79h382.741c35.169 0 63.79 28.621 63.79 63.79v340.214c0 35.169-28.621 63.79-63.79 63.79h-586.571zM618.212 397.081h-297.687c-11.737 0-21.264 9.527-21.264 21.264s9.527 21.264 21.264 21.264h297.687c11.737 0 21.264-9.527 21.264-21.264s-9.527-21.264-21.264-21.264zM618.212 269.501h-297.687c-11.737 0-21.264 9.527-21.264 21.264s9.527 21.264 21.264 21.264h297.687c11.737 0 21.264-9.527 21.264-21.264s-9.527-21.264-21.264-21.264zM618.212 141.921h-297.687c-11.737 0-21.264 9.527-21.264 21.264s9.527 21.264 21.264 21.264h297.687c11.737 0 21.264-9.527 21.264-21.264s-9.527-21.264-21.264-21.264zM745.792 397.081c-11.737 0-21.264 9.527-21.264 21.264s9.527 21.264 21.264 21.264c35.169 0 63.79 28.621 63.79 63.79v255.161c0 5.656 2.254 11.057 6.209 15.054l133.832 133.788h-586.571c-35.169 0-63.79-28.621-63.79-63.79v-297.687c0-11.737-9.527-21.264-21.264-21.264s-21.264 9.527-21.264 21.264v297.687c0 58.603 47.672 106.316 106.316 106.316h637.9c8.59 0 16.373-5.188 19.648-13.141s1.447-17.097-4.592-23.178l-163.899-163.856v-246.357c0-58.603-47.672-106.316-106.316-106.316zM703.266 779.821h-297.687c-11.737 0-21.264 9.527-21.264 21.264s9.527 21.264 21.264 21.264h297.687c11.737 0 21.264-9.527 21.264-21.264s-9.527-21.264-21.264-21.264zM703.266 652.241h-297.687c-11.737 0-21.264 9.527-21.264 21.264s9.527 21.264 21.264 21.264h297.687c11.737 0 21.264-9.527 21.264-21.264s-9.527-21.264-21.264-21.264z" />
<glyph unicode="&#xe910;" glyph-name="message2" d="M734.725 217.315l289.15 289.15-105.146 105.146-289.15-289.15-39.802-144.948 144.948 39.802zM704.378 247.663l-61.781-17.328 17.328 61.781 44.452-44.452zM780.54 525.993v138.923l-231.907-177.46 96.661-96.71-26.287-26.287-100.156 100.206-110.056-84.217-109.979 84.159-235.355-235.474h501.942l-10.208-37.175h-555.319v594.793h817.84v-223.583l-37.175-37.175zM780.54 711.638v37.939h-743.491v-37.939l371.745-285.011 371.745 285.011zM37.049 255.296l231.985 232.101-231.985 177.519v-409.62zM866.156 506.465l52.572-52.572-184.005-184.005-52.572 52.572 184.005 184.005zM918.729 559.038l52.572-52.572-26.287-26.287-52.572 52.572 26.287 26.287z" />
<glyph unicode="&#xe911;" glyph-name="message-graphique" d="M143.63 533.593v26.63l100.43 76.851v280.259h401.722l133.908-133.908v-146.353l100.43-76.851v-513.289h-736.492v486.658zM177.107 543.766v-38.42l66.954-51.331v141.085l-66.954-51.331zM846.644 543.766l-66.954 51.331v-141.085l66.954 51.331v38.42zM277.537 428.345l148.163-113.597h172.347l148.163 113.597v321.603h-133.908v133.908h-334.77v-455.511zM846.644 463.27l-208.839-159.808 208.839-208.945v368.755zM813.409 80.412l-200.761 200.862h-201.424l-200.761-200.862h602.947zM177.107 94.393l208.909 209.014-208.909 159.859v-368.874zM732.823 783.427l-87.039 87.039v-87.039h87.039zM578.829 649.519h33.478v-234.338h-33.478v234.338zM511.875 549.087h33.478v-133.908h-33.478v133.908zM444.922 582.564h33.478v-167.384h-33.478v167.384zM377.966 515.613h33.478v-100.43h-33.478v100.43z" />
<glyph unicode="&#xe912;" glyph-name="graphique" d="M98.834 487.511c-8.605 0-19.361 2.152-27.967 4.302-47.328 15.059-70.991 64.538-55.932 111.866 12.907 36.571 45.177 60.236 83.9 60.236 8.605 0 19.361-2.152 27.967-4.302 21.513-6.454 40.875-23.663 51.63-43.025 10.756-21.513 12.907-45.177 4.302-66.689-10.756-36.571-45.177-62.386-83.9-62.386zM98.834 623.041c-19.361 0-38.723-12.907-45.177-32.269-8.605-23.663 6.454-51.63 30.118-58.084 23.663-8.605 51.63 6.454 58.084 30.118 4.302 10.756 2.152 23.663-2.152 34.421-6.454 10.756-15.059 19.361-27.967 23.663-2.152 2.152-8.605 2.152-12.907 2.152zM258.027-2.975c-19.361 0-36.571 6.454-51.63 17.209-38.723 27.967-47.328 83.9-19.361 122.621 17.209 23.663 43.025 36.571 70.991 36.571 19.361 0 36.571-6.454 51.63-17.209 19.361-12.907 32.269-34.421 34.421-58.084 4.302-23.663-2.152-47.328-15.059-66.689-15.059-19.361-43.025-34.421-70.991-34.421zM258.027 132.553c-15.059 0-27.967-6.454-36.571-19.361-15.059-21.513-10.756-49.479 10.756-64.538 19.361-15.059 49.479-8.605 64.538 10.756 6.454 10.756 10.756 21.513 8.605 34.421s-8.605 23.663-19.361 30.118c-8.605 6.454-17.209 8.605-27.967 8.605zM774.33-2.975c-27.967 0-55.932 12.907-70.991 36.571-12.907 19.361-19.361 43.025-15.059 66.689s17.209 43.025 34.421 58.084c15.059 10.756 32.269 17.209 51.63 17.209 27.967 0 55.932-12.907 70.991-36.571 27.967-38.723 19.361-94.655-19.361-122.621-15.059-12.907-32.269-19.361-51.63-19.361zM774.33 132.553c-10.756 0-19.361-2.152-27.967-8.605-10.756-6.454-17.209-17.209-19.361-30.118s0-23.663 8.605-34.421c15.059-19.361 45.177-25.815 64.538-10.756 21.513 15.059 25.815 45.177 10.756 64.538-8.605 12.907-21.513 19.361-36.571 19.361zM933.522 487.511c-38.723 0-73.143 23.663-83.9 60.236-6.454 21.513-6.454 47.328 4.302 66.689 10.756 21.513 27.967 36.571 51.63 43.025 8.605 2.152 17.209 4.302 27.967 4.302 38.723 0 73.143-23.663 83.9-60.236 6.454-21.513 6.454-47.328-4.302-66.689-10.756-21.513-27.967-36.571-51.63-43.025-10.756-2.152-19.361-4.302-27.967-4.302zM933.522 623.041c-4.302 0-8.605 0-15.059-2.152-10.756-4.302-21.513-12.907-27.967-23.663s-6.454-23.663-2.152-34.421c8.605-23.663 34.421-36.571 58.084-30.118 10.756 4.302 21.513 12.907 27.967 23.663s6.454 23.663 2.152 34.421c-6.454 19.361-23.663 32.269-43.025 32.269zM516.178 790.839c-49.479 0-88.202 38.723-88.202 88.202s38.723 88.202 88.202 88.202 88.202-38.723 88.202-88.202c0-47.328-38.723-88.202-88.202-88.202zM516.178 926.369c-25.815 0-47.328-21.513-47.328-47.328s21.513-47.328 47.328-47.328 47.328 21.513 47.328 47.328-21.513 47.328-47.328 47.328zM281.691 360.588c-10.756 27.967-15.059 58.084-15.059 86.051 0 30.118 4.302 58.084 15.059 86.051l38.723-15.059c-8.605-23.663-12.907-47.328-12.907-73.143 0-23.663 4.302-49.479 12.907-73.143l-38.723-10.756zM750.667 360.588l-40.875 15.059c8.605 23.663 12.907 47.328 12.907 73.143 0 23.663-4.302 49.479-12.907 73.143l38.723 15.059c10.756-27.967 15.059-58.084 15.059-86.051 2.152-32.269-4.302-62.386-12.907-90.353zM675.371 580.016c-32.269 38.723-75.293 64.538-124.773 70.991l6.454 40.875c58.084-10.756 111.866-40.875 150.589-86.051l-32.269-25.815zM475.304 201.395c-58.084 10.756-111.866 40.875-150.589 86.051l32.269 25.815c32.269-38.723 75.293-64.538 124.773-70.991l-6.454-40.875zM356.985 580.016l-32.269 25.815c38.723 45.177 92.505 77.445 150.589 86.051l6.454-40.875c-49.479-6.454-94.655-32.269-124.773-70.991zM557.053 201.395l-6.454 40.875c49.479 8.605 92.505 34.421 124.773 70.991l32.269-25.815c-36.571-45.177-90.353-75.293-150.589-86.051z" />
<glyph unicode="&#xe913;" glyph-name="camembert" d="M584.108 524.622l104.1 461.013 21.245-4.249c146.589-36.116 261.311-146.589 303.8-291.053 2.125-4.249 2.125-8.498 4.249-12.747l6.373-25.494-439.767-127.469zM717.95 932.522l-78.606-348.414 329.294 93.477c-33.992 123.22-129.594 218.822-250.689 254.938zM435.394-21.369c-186.955 0-352.664 125.344-403.652 303.8-31.867 108.348-19.12 220.945 36.116 318.672s144.464 169.958 252.813 199.702c70.108 21.245 144.464 21.245 216.697 4.249l19.12-4.249-87.103-390.905 369.659 106.224 4.249-21.245c50.988-218.822-76.481-437.642-293.178-499.253-36.116-10.622-74.356-16.995-114.722-16.995zM435.394 775.311c-33.992 0-70.108-4.249-104.1-14.872-97.726-27.619-178.456-91.353-227.319-180.581-48.863-87.103-59.486-189.078-31.867-284.68 46.739-161.461 195.452-274.058 363.286-274.058 36.116 0 70.108 4.249 104.1 14.872 186.955 53.112 301.677 237.942 267.684 427.020l-395.153-112.597 93.477 418.522c-21.245 4.249-46.739 6.373-70.108 6.373z" />
<glyph unicode="&#xe914;" glyph-name="graphique-2" horiz-adv-x="819" d="M819.027 259.735h-819.057v629.105h819.057v-629.105zM34.827 292.845h751.092v562.882h-751.092v-562.882zM226.521 385.206h-106.304v33.112h87.132l95.848 158.584 195.179-78.421 186.466 257.916 27.883-19.168-202.151-280.571-193.436 76.679zM243.711 287.571l25.999-23.208-168.266-188.506-25.999 23.208 168.266 188.506zM575.704 287.122l168.314-188.478-25.999-23.217-168.314 188.478 25.999 23.217zM392.073 275.419h34.852v-142.899h-34.852v142.899z" />
<glyph unicode="&#xe915;" glyph-name="triangle-plein" horiz-adv-x="934" d="M53.33 82.545c0.567 41.391 11.115 767.8 11.517 796.37 0.567 36.999 40.375 64.017 79.039 41.841 30.969-17.743 649.896-376.312 702.723-406.953 34.677-20.149 33.417-67.033-1.263-86.247-38.666-21.487-670.165-364.869-715.869-388.764-33.453-17.461-76.761 2.927-76.149 43.749z" />
<glyph unicode="&#xe916;" glyph-name="planete" d="M512 21.333c-254.505 0-460.773 206.325-460.773 460.8s206.27 460.8 460.773 460.8c254.475 0 460.8-206.325 460.8-460.8s-206.325-460.8-460.8-460.8zM894.725 439.248c-12.663 0-22.916 10.224-22.916 22.916l0.24-0.949c0 12.663-10.251 22.916-22.916 22.916h-30.495l-60.244-60.244-75.733 100.724h72.076c0 13.286-10.756 24.042-24.017 24.042l-48.059-24.042h-31.685v41.517c0 17.361-14.085 31.419-31.444 31.419h-15.957l-18.752 38.223h-31.268c0 17.271 13.995 31.239 31.293 31.239v-31.239l29.155 20.151 17.595-5.353 3.392 9.423-31.419 11.295c0 40.656 32.963 73.647 73.62 73.647 24.017 0 45.351-11.502 58.79-29.306l74.455 45.566c-74.569 79.713-180.675 129.613-298.431 129.613-119.655 0-227.313-51.417-302.031-133.359h38.547v-42.706c-23.031 0-41.669-18.664-41.669-41.697s18.639-41.669 41.669-41.669h43.245v36.441h44.613l43.871-43.839v-41.075l-44.343-44.343h-42.381c0-20.385-16.551-36.974-36.974-36.974h-49.725v-52.311h-41.669l-58.167 86.994c-2.349-17.715-3.682-35.757-3.682-54.121 0-225.731 182.997-408.699 408.699-408.699 188.997 0 347.98 128.334 394.696 302.625l-11.979 7.551v55.638zM746.145 376.12v-74.871l-41.669-41.643v-45.351h-41.163l-41.163 41.193v103.905h-44.793c-48.537 0-87.885 39.354-87.885 87.918v28.027c0 16.108 13.046 29.187 29.187 29.187h152.858l75.669-100.724h26.573c0-15.274-12.362-27.639-27.611-27.639zM413.441 703.704l-26.243-60.273-43.871 43.839-0.387 43.659-18.133 27.787 31.977 48.627 133.864-26.422c0-42.618-34.569-77.214-77.214-77.214zM746.145 264.273v-24.993c0-13.793-11.205-25.029-25.029-25.029v25.029c0 13.793 11.205 24.993 25.029 24.993zM541.041 535.038v62.505h62.535c0-34.506-27.999-62.505-62.535-62.505zM422.538 362.504h43.39l-0.152-34.893c0-27.015-21.933-48.951-48.983-48.951v-35.962l-74.511-74.48v-30.761l-41.492 20.297v161.563c-27.079 0-49.008 21.879-49.008 48.951l-0.152 34.893-44.82 46.098 130.777-0.265 84.945-86.489z" />
<glyph unicode="&#xe917;" glyph-name="twitter" horiz-adv-x="1041" d="M942.19 736.218c-30.996-13.379-64.371-22.39-99.368-26.474 35.769 20.787 63.197 53.742 76.066 92.956-33.441-19.243-70.407-33.194-109.885-40.718-31.488 32.64-76.511 53.079-126.283 53.079-95.482 0-172.951-75.312-172.951-168.087 0-13.204 1.465-25.984 4.443-38.279-143.764 7.033-271.205 73.848-356.59 175.656-14.888-24.92-23.431-53.807-23.431-84.608 0-58.227 30.554-109.75 76.976-139.905-28.335 0.863-55.054 8.475-78.397 21.012v-2.063c0-81.482 59.624-149.421 138.82-164.824-14.511-3.949-29.803-5.901-45.601-5.901-11.137 0-22.013 0.977-32.534 2.951 21.989-66.725 85.875-115.39 161.581-116.674-59.204-45.090-133.828-71.94-214.863-71.94-13.959 0-27.758 0.755-41.27 2.284 76.578-47.663 167.515-75.487 265.19-75.487 318.291 0 492.257 256.093 492.257 478.278 0 7.278-0.155 14.561-0.465 21.747 33.792 23.7 63.171 53.3 86.294 87.007z" />
<glyph unicode="&#xe918;" glyph-name="facebook" horiz-adv-x="1023" d="M317.274 620.838h83.157v82.319c0 36.331 0.885 92.283 26.78 126.949 27.254 36.734 64.679 61.704 129.042 61.704 104.891 0 149.074-15.226 149.074-15.226l-20.781-125.506c0 0-34.669 10.203-66.991 10.203-32.342 0-61.3-11.792-61.3-44.722v-95.728h132.597l-9.248-122.573h-123.349v-425.802h-155.821v425.802h-83.157v122.573z" />
<glyph unicode="&#xe919;" glyph-name="rappeler" horiz-adv-x="1023" d="M865.075 394.727c-23.304-27.083-52.68-43.227-87.364-49.611-11.035-2.031-22.536-1.815-33.831-2.002-17.959-0.309-35.92-0.076-54.617-0.076 0-3.136 0-5.616 0-8.085 0.008-73.007 0.008-146.015 0.038-219.013 0.019-33.336-28.47-65.015-61.356-67.99-6.43-0.581-12.896-0.926-19.353-0.926-101.186-0.057-202.373-0.093-303.561 0.046-7.795 0-15.75 0.486-23.377 2.040-35.038 7.113-54.253 43.276-54.188 69.236 0.552 241.953 0.665 483.914-0.076 725.864-0.103 32.418 24.951 73.129 71.819 73.072 106.268-0.141 212.536 0.038 318.806-0.093 40.242-0.046 65.22-28.544 70.733-60.084 0.516-2.938 0.535-5.999 0.535-9.002 0.019-68.131 0-136.274-0.019-204.405 0-2.048 0-4.1 0-7.038 21.423 0 41.721-0.065 62.010 0.019 25.858 0.093 50.173-5.418 73.11-17.905 82.742-45.007 102.283-152.473 40.693-224.048zM266.772 114.984c0.038-3.978 1.544-8.226 3.37-11.838 6.637-13.159 18.23-17.276 32.176-17.259 100.709 0.065 201.42 0.038 302.118 0.038 4.623 0 9.247-0.168 13.86 0.046 18.024 0.841 31.698 12.755 31.989 29.2 0.486 27.337 0.103 54.682 0.046 82.020 0 0.619-0.467 1.226-0.795 2.059-127.428 0-254.819 0-382.426 0-0.195-1.198-0.459-2.067-0.459-2.938-0.027-27.113-0.168-54.234 0.122-81.328zM649.936 381.128c0 73.026 0 145.2 0 217.366-48.404 0-96.292 0-146.136 0 21.038-21.030 40.888-40.869 59.916-59.897-8.891-9.059-17.408-17.752-25.325-25.822-34.881 34.992-70.088 70.313-104.733 105.061 34.778 34.881 69.995 70.21 104.873 105.183 8.161-8.142 16.77-16.732 26.691-26.636-19.672-19.383-39.643-39.046-60.223-59.305 48.919 0 96.815 0 145.005 0 0 54.495 0 108.572 0 162.982-127.841 0-255.242 0-383.015 0 0-193.772 0-387.191 0-581.039 128.028 0 255.568 0 383.026 0 0 41.61 0 82.525 0 124.173-64.303 0-128.169 0-191.987 0 0 12.869 0 24.989 0 37.931 64.387 0 128.223 0 191.91 0zM650.219 846.792c-0.627 5.98-2.499 12.279-5.494 17.473-6.637 11.512-18.035 14.065-30.426 14.057-103.929-0.038-207.867-0.019-311.796-0.019-1.853 0-3.706 0.038-5.54-0.13-16.827-1.639-29.444-13.056-30.209-28.068-0.505-9.919-0.093-19.888-0.093-30.312 128.345 0 255.877 0 383.794 0 0 9.442 0.673 18.306-0.233 26.999zM862.576 503.138c-4.96 42.741-37.838 80.664-80.056 91.698-30.453 7.955-61.552 2.312-92.792 4.455 0-73.522 0-145.707 0-217.732 24.193 0 47.926-0.244 71.661 0.084 16.266 0.225 31.164 5.69 45.324 13.476 39.119 21.508 61.001 63.733 55.862 108.018zM458.335 180.421c20.318 0.093 35.787-15.555 35.63-36.031-0.149-18.998-16.613-35.122-35.684-34.927-19.578 0.178-35.291 16.256-35.206 36.031 0.076 19.663 15.406 34.851 35.264 34.927zM458.645 127.356c8.834 0.093 16.247 7.516 16.331 16.35 0.084 9.021-7.776 16.949-16.678 16.808-8.628-0.141-16.388-7.879-16.499-16.453-0.111-8.863 7.879-16.8 16.846-16.705z" />
<glyph unicode="&#xe91a;" glyph-name="nuage" horiz-adv-x="1300" d="M928.441 138.126v4.92h15.72c1.226 0 2.7 0 4.18 0l0.24-4.92c-1.48 0-2.7 0-4.18 0h-15.975zM918.612 138.126h-19.66v4.92h19.66v-4.92zM889.133 138.126h-19.66v4.92h19.66v-4.92zM859.392 138.126h-19.66v4.92h19.66v-4.92zM829.912 138.126h-19.66v4.92h19.66v-4.92zM800.428 138.126h-19.66v4.92h19.66v-4.92zM770.692 138.126h-19.66v4.92h19.66v-4.92zM741.213 138.126h-19.66v4.92h19.66v-4.92zM711.717 138.126h-19.66v4.92h19.66v-4.92zM682.232 138.126h-19.66v4.92h19.66v-4.92zM652.505 138.126h-19.66v4.92h19.66v-4.92zM623.012 138.126h-19.66v4.92h19.66v-4.92zM593.532 138.126h-19.66v4.92h19.66v-4.92zM564.052 138.126h-19.66v4.92h19.66v-4.92zM534.553 138.126h-19.66v4.92h19.66v-4.92zM504.832 138.126h-19.66v4.92h19.66v-4.92zM475.341 138.126h-19.66v4.92h19.66v-4.92zM445.852 138.126h-19.66v4.92h19.66v-4.92zM416.372 138.126h-19.66v4.92h19.66v-4.92zM386.632 138.126h-19.66v4.92h19.66v-4.92zM357.152 138.126h-19.66v4.92h19.66v-4.92zM327.418 138.126h-13.020c-2.215 0-4.666 0-6.88 0.24l0.24 4.92c2.215 0 4.42-0.24 6.64-0.24h13.020v-4.92zM958.413 138.866l-0.495 4.92c6.386 0.495 13.020 1.48 19.16 2.46l0.74-4.92c-6.14-0.98-12.78-1.96-19.415-2.46zM297.446 139.106c-6.64 0.74-13.266 1.72-19.66 3.2l1.226 4.666c6.14-1.48 12.78-2.46 19.16-3.2l-0.74-4.666zM987.911 143.285l-0.98 4.92c6.386 1.48 12.535 3.2 18.68 5.16l1.48-4.666c-6.386-2.215-12.78-3.935-19.16-5.4zM268.206 144.763c-6.386 1.96-12.535 4.18-18.68 6.88l1.96 4.42c5.9-2.7 12.040-4.92 18.18-6.64l-1.48-4.666zM1016.413 151.886l-1.72 4.666c6.14 2.215 12.040 4.92 17.94 7.62l2.215-4.42c-6.14-2.946-12.28-5.655-18.426-7.86zM240.432 156.066c-5.9 2.946-11.546 6.386-17.2 10.080l2.7 4.18c5.4-3.68 11.060-6.88 16.706-9.826l-2.215-4.42zM1043.683 164.166l-2.215 4.42c5.655 2.946 11.3 6.386 16.706 9.826l2.7-4.18c-5.655-3.68-11.546-7.12-17.2-10.080zM215.132 171.785c-5.16 3.935-10.32 8.106-15.24 12.78l3.44 3.68c4.666-4.42 9.826-8.6 14.986-12.28l-3.2-4.18zM1068.753 179.894l-2.946 3.935c5.16 3.68 10.32 7.86 15.24 12.040l3.2-3.68c-4.92-4.42-10.080-8.36-15.48-12.28zM192.772 191.445c-4.666 4.666-9.095 9.826-13.020 14.986l3.935 2.946c3.935-5.16 8.36-10.080 12.78-14.5l-3.68-3.44zM1091.844 198.814l-3.44 3.68c4.666 4.42 9.34 9.095 13.52 14l3.68-3.2c-4.42-5.16-9.095-10.080-13.76-14.5zM173.604 214.294c-3.935 5.4-7.375 11.060-10.815 16.706l4.18 2.46c3.2-5.655 6.88-11.060 10.56-16.22l-3.935-2.946zM1112.232 220.444l-3.68 3.2c4.18 4.92 8.106 10.080 11.8 15.48l3.935-2.7c-3.935-5.4-7.86-10.815-12.040-15.975zM158.124 239.846c-2.946 5.9-5.9 11.8-8.36 17.94l4.666 1.96c2.46-5.9 5.16-12.040 8.106-17.695l-4.42-2.215zM1129.685 244.524l-4.18 2.7c3.44 5.4 6.64 11.060 9.826 16.96l4.42-2.215c-3.44-6.14-6.64-11.8-10.080-17.44zM146.083 267.126c-2.215 6.14-4.18 12.535-5.9 18.92l4.666 1.226c1.72-6.386 3.44-12.535 5.655-18.68l-4.42-1.48zM1143.932 270.566l-4.42 2.215c2.7 5.9 5.4 11.8 7.62 17.94l4.666-1.72c-2.46-6.14-5.16-12.28-7.86-18.426zM137.972 295.626c-1.48 6.386-2.46 13.020-3.44 19.66l4.92 0.495c0.74-6.386 1.96-12.78 3.2-19.16l-4.666-0.98zM1154.992 298.326l-4.666 1.48c1.96 6.14 3.935 12.535 5.4 18.68l4.666-1.226c-1.48-6.14-3.44-12.78-5.4-18.92zM133.552 325.108c-0.495 6.64-0.74 13.266-0.74 19.9 0 5.655 0.24 11.3 0.495 16.96l4.92-0.24c-0.495-5.4-0.495-11.060-0.495-16.706 0-6.386 0.24-13.020 0.74-19.415l-4.92-0.495zM1162.613 327.086l-4.92 0.98c1.226 6.386 2.215 12.78 2.946 19.16l4.92-0.495c-0.74-6.64-1.72-13.266-2.946-19.66zM1166.537 356.566l-4.92 0.495c0.495 6.14 0.74 12.535 0.74 18.92v0.495h4.92v-0.495c0-6.64-0.24-13.020-0.74-19.415zM139.203 371.305l-4.92 0.495c0.74 6.64 1.72 13.266 3.2 19.66l4.92-0.98c-1.48-6.386-2.46-12.78-3.2-19.16zM1162.112 386.045c-0.24 6.386-0.74 13.020-1.48 19.415l4.92 0.495c0.74-6.386 1.226-13.266 1.72-19.66l-5.16-0.24zM144.363 400.059l-4.666 0.98c1.48 6.386 3.44 12.78 5.655 19.16l4.666-1.48c-2.215-6.14-4.18-12.535-5.655-18.68zM1159.173 415.045c-0.98 6.386-2.46 12.78-3.935 19.16l4.666 1.226c1.48-6.386 2.946-13.020 3.935-19.415l-4.666-0.98zM153.212 427.825l-4.666 1.72c2.46 6.14 5.16 12.28 8.106 18.18l4.42-2.215c-2.946-5.655-5.4-11.8-7.86-17.695zM1152.777 443.545c-1.72 6.14-3.935 12.535-6.14 18.426l4.666 1.72c2.46-6.14 4.42-12.535 6.386-18.92l-4.92-1.226zM165.735 454.11l-4.18 2.46c3.2 5.9 6.88 11.546 10.56 16.96l3.935-2.7c-3.68-5.655-7.12-11.060-10.32-16.706zM1142.952 471.066c-2.46 5.9-5.4 11.8-8.36 17.44l4.42 2.215c3.2-5.9 5.9-11.8 8.6-17.94l-4.666-1.72zM181.712 478.445l-3.935 2.946c4.18 5.16 8.36 10.32 12.78 15.24l3.68-3.44c-4.42-4.666-8.6-9.58-12.535-14.74zM1129.933 497.111c-3.2 5.655-6.88 11.060-10.56 16.46l3.935 2.7c3.68-5.4 7.375-11.060 10.815-16.706l-4.18-2.46zM201.124 500.066l-3.44 3.44c4.92 4.666 9.826 8.84 14.986 13.020l2.946-3.935c-4.92-3.935-9.826-8.106-14.5-12.535zM223.732 518.246l-2.7 3.935c5.4 3.68 11.3 7.12 16.96 10.32l2.215-4.42c-5.655-2.7-11.3-6.14-16.46-9.826zM1113.712 521.445c-3.935 5.16-8.106 10.080-12.535 14.986l3.68 3.2c4.42-4.92 8.6-10.080 12.78-15.24l-3.935-2.946zM248.792 532.746l-1.96 4.42c6.14 2.7 12.28 5.16 18.68 7.12l1.48-4.666c-6.14-1.96-12.28-4.42-18.18-6.88zM276.312 542.325l-1.226 4.666c6.386 1.72 13.020 2.946 19.66 3.68l0.495-4.92c-6.386-0.74-12.78-1.96-18.92-3.44zM1094.553 543.306c-4.42 4.666-9.34 9.095-14.255 13.266l3.2 3.68c4.92-4.18 9.826-8.84 14.5-13.52l-3.44-3.44zM304.812 546.746l-0.24 4.92c3.2 0.24 6.64 0.24 9.826 0.24l4.666-0.24c0 0.24 0 0.495 0 0.495l4.92-0.24c0-0.98 0-1.96-0.24-2.946v-2.46l-9.34 0.24c-3.2 0.24-6.386 0-9.58 0zM324.472 561.741l-4.92 0.495c0.495 6.64 1.48 13.266 2.46 19.66l4.92-0.74c-0.98-6.386-1.72-13.020-2.46-19.415zM1072.672 562.726c-5.16 3.935-10.32 7.86-15.72 11.3l2.7 4.18c5.4-3.68 11.060-7.375 16.22-11.546l-3.2-3.935zM1048.592 579.186c-5.655 3.2-11.3 6.386-17.2 9.095l2.215 4.42c5.9-2.7 11.8-5.9 17.44-9.34l-2.46-4.18zM328.652 590.726l-4.92 0.98c1.226 6.386 2.946 13.020 4.666 19.16l4.666-1.226c-1.72-6.14-3.2-12.535-4.42-18.92zM1022.552 592.205c-5.9 2.46-12.040 4.666-18.18 6.64l1.48 4.666c6.386-1.96 12.535-4.18 18.68-6.88l-1.96-4.42zM995.032 601.546c-6.14 1.72-12.535 2.946-18.92 4.18l0.74 4.92c6.386-0.98 13.020-2.46 19.415-4.18l-1.226-4.92zM966.282 606.945c-6.386 0.74-12.78 1.226-19.415 1.48l0.24 4.92c6.64-0.24 13.266-0.74 19.9-1.48l-0.74-4.92zM929.43 608.426l-0.495 1.72c-1.226 4.42-2.46 8.6-3.935 12.78l4.666 1.48c1.226-3.68 2.46-7.62 3.44-11.3h4.18v-4.92l-7.86 0.24zM336.018 618.986l-4.666 1.48c1.96 6.14 4.18 12.535 6.64 18.68l4.666-1.72c-2.46-6.14-4.666-12.28-6.64-18.426zM921.561 632.263c-2.215 6.14-4.92 12.040-7.62 17.94l4.42 1.96c2.7-5.9 5.4-12.040 7.62-18.18l-4.42-1.72zM346.338 646.265l-4.42 1.96c2.7 5.9 5.655 12.040 8.84 17.695l4.42-2.215c-3.2-5.9-6.14-11.546-8.84-17.44zM909.773 659.046c-2.946 5.655-6.14 11.546-9.58 16.96l4.18 2.46c3.44-5.655 6.64-11.546 9.58-17.2l-4.18-2.215zM359.612 672.066l-4.18 2.46c3.2 5.655 6.88 11.3 10.56 16.706l4.18-2.7c-3.68-5.4-7.12-10.815-10.56-16.46zM895.029 684.346c-3.44 5.4-7.375 10.815-11.3 15.975l3.935 2.946c3.935-5.16 7.86-10.56 11.3-16.22l-3.935-2.7zM375.832 696.635l-3.935 2.946c3.935 5.4 8.106 10.56 12.28 15.48l3.68-3.2c-4.18-4.92-8.36-10.080-12.040-15.24zM877.829 707.686c-4.18 4.92-8.36 9.826-12.78 14.74l3.68 3.44c4.42-4.92 8.84-9.826 13.020-14.986l-3.935-3.2zM394.252 719.246l-3.68 3.2c4.42 4.92 9.095 9.58 13.76 14.255l3.44-3.44c-4.666-4.42-9.095-9.34-13.52-14zM858.173 729.566c-4.666 4.666-9.34 9.095-14.255 13.266l3.2 3.68c4.92-4.42 9.826-8.84 14.5-13.52l-3.44-3.44zM414.892 739.885l-3.2 3.68c4.92 4.42 10.080 8.6 15.24 12.78l2.946-3.935c-5.16-3.935-10.080-8.106-14.986-12.535zM836.548 749.226c-4.92 4.18-10.080 8.106-15.48 11.8l2.946 3.935c5.4-3.935 10.56-7.86 15.72-12.040l-3.2-3.68zM437.5 758.557l-2.946 3.935c5.16 3.935 10.815 7.62 16.22 11.3l2.7-4.18c-5.4-3.44-10.815-7.375-15.975-11.060zM813.199 766.665c-5.4 3.68-10.815 7.12-16.46 10.32l2.46 4.18c5.655-3.44 11.3-6.88 16.706-10.56l-2.7-3.935zM461.832 774.768l-2.46 4.18c5.655 3.44 11.3 6.64 17.2 9.826l2.215-4.42c-5.655-2.946-11.3-6.14-16.96-9.58zM788.132 781.649c-5.655 3.2-11.546 6.14-17.44 8.84l1.96 4.42c5.9-2.7 11.8-5.9 17.695-8.84l-2.215-4.42zM487.632 788.785l-2.215 4.42c5.9 2.946 12.040 5.655 18.18 8.106l1.96-4.42c-6.14-2.7-12.040-5.4-17.94-8.106zM761.853 794.426c-5.9 2.46-12.040 4.92-18.18 7.12l1.72 4.666c6.14-2.215 12.28-4.666 18.426-7.375l-1.96-4.42zM514.412 800.325l-1.72 4.666c6.14 2.215 12.535 4.42 18.68 6.386l1.48-4.666c-6.14-1.96-12.28-4.18-18.426-6.386zM734.572 804.746c-6.14 1.96-12.535 3.935-18.68 5.4l1.226 4.666c6.386-1.72 12.78-3.44 18.92-5.655l-1.48-4.42zM542.172 809.169l-1.226 4.666c6.386 1.72 12.78 3.44 19.16 4.666l0.98-4.92c-6.14-0.98-12.535-2.7-18.92-4.42zM706.312 812.609c-6.386 1.48-12.78 2.7-19.16 3.935l0.74 4.92c6.386-0.98 13.020-2.46 19.415-3.935l-0.98-4.92zM570.932 815.806l-0.98 4.92c6.386 1.226 13.020 2.215 19.66 2.946l0.495-4.92c-6.386-0.74-13.020-1.72-19.16-2.946zM677.573 818.025c-6.386 0.98-13.020 1.72-19.415 2.215l0.495 4.92c6.64-0.495 13.266-1.226 19.66-2.215l-0.74-4.92zM599.672 819.746l-0.495 4.92c6.64 0.495 13.266 0.98 19.66 1.226l0.24-4.92c-6.386-0.24-12.78-0.495-19.415-1.226zM648.572 820.726c-5.655 0.24-11.546 0.495-17.44 0.495h-2.215v4.92h2.215c5.9 0 11.8-0.24 17.695-0.495l-0.24-4.92z" />
<glyph unicode="&#xe91b;" glyph-name="uniE919" d="M1024.301 449.727h-489.543v489.543h-45.518v-489.543h-489.543v-45.518h489.543v-489.543h45.518v489.543h489.543v45.518z" />
<glyph unicode="&#xe91c;" glyph-name="trace" horiz-adv-x="931" d="M810.86 492.018c-37.068 0-74.136-4.633-115.837-9.267-37.068-4.633-74.136-4.633-115.837-9.267-37.068 0-74.136-4.633-111.204-4.633s-74.136-4.633-115.837-4.633-74.136 0-115.837-4.633-74.136 0-115.837-4.633c-37.068 0-74.136-4.633-115.837-4.633 37.068-46.335 74.136-69.502 129.738-60.235 0 0 4.633 0 4.633 0 185.339 4.633 370.679 4.633 560.652 9.267 46.335 0 97.303 0 139.005 32.434 18.534 18.534 41.701 32.434 64.869 50.968 0 4.633 0 4.633 0 9.267-23.167 13.9-60.235 0-92.67 0z" />
<glyph unicode="&#xe91d;" glyph-name="puce" horiz-adv-x="934" d="M-0.279-5.512c0.65 46.883 12.672 875.46 13.137 907.953 0.527 31.769 26.403 57.32 58.248 57.32 11.868 0 22.907-3.549 32.114-9.643 35.108-19.825 741-428.775 801.251-464.054 17.346-9.665 28.885-27.896 28.885-48.822 0-21.499-12.18-40.154-30.016-49.439-44.406-24.284-764.641-416.059-816.77-443.446-8.318-4.905-18.326-7.803-29.012-7.803-31.943 0-57.838 25.895-57.838 57.838 0 0.034 0 0.068 0 0.102z" />
<glyph unicode="&#xe91e;" glyph-name="puce2" horiz-adv-x="887" d="M0 960v-1024l887.218 512zM106.445 775.85l567.884-327.85-567.884-328.383v656.233z" />
</font>
</defs>
</svg>
